ISO-10303-21;
HEADER;
FILE_DESCRIPTION (( 'STEP AP214' ),
    '1' );
FILE_NAME ('WSHM2818R0150FEA.STEP',
    '2023-11-23T07:53:40',
    ( '' ),
    ( '' ),
    'SwSTEP 2.0',
    'SolidWorks 2021',
    '' );
FILE_SCHEMA (( 'AUTOMOTIVE_DESIGN' ));
ENDSEC;

DATA;
#1 = DIRECTION ( 'NONE',  ( 0.000000000000000000, -0.000000000000000000, 1.000000000000000000 ) ) ;
#2 = AXIS2_PLACEMENT_3D ( 'NONE', #417, #568, #1122 ) ;
#3 = CARTESIAN_POINT ( 'NONE',  ( 0.1329999999999999793, 0.06900000000000003353, 0.08999999999999999667 ) ) ;
#4 = EDGE_CURVE ( 'NONE', #308, #156, #751, .T. ) ;
#5 =( NAMED_UNIT ( * ) PLANE_ANGLE_UNIT ( ) SI_UNIT ( $, .RADIAN. ) );
#6 = LENGTH_MEASURE_WITH_UNIT ( LENGTH_MEASURE( 0.02539999999999999897 ), #445 );
#7 = EDGE_CURVE ( 'NONE', #1004, #925, #1020, .T. ) ;
#8 = CARTESIAN_POINT ( 'NONE',  ( -0.1329999999999999793, -1.492127187657557686E-17, 0.08999999999999999667 ) ) ;
#9 = EDGE_CURVE ( 'NONE', #342, #566, #1151, .T. ) ;
#10 = LINE ( 'NONE', #554, #1093 ) ;
#11 = EDGE_LOOP ( 'NONE', ( #1107, #74, #1105, #804 ) ) ;
#12 = VECTOR ( 'NONE', #1100, 39.37007874015748143 ) ;
#13 = CARTESIAN_POINT ( 'NONE',  ( -0.1329999999999999793, 0.006999999999999985401, -0.08499999999999999223 ) ) ;
#14 = PLANE ( 'NONE',  #285 ) ;
#15 = ORIENTED_EDGE ( 'NONE', *, *, #441, .T. ) ;
#16 = EDGE_CURVE ( 'NONE', #1062, #541, #527, .T. ) ;
#17 = AXIS2_PLACEMENT_3D ( 'NONE', #879, #1, #798 ) ;
#18 = ADVANCED_FACE ( 'NONE', ( #622 ), #260, .T. ) ;
#19 = ORIENTED_EDGE ( 'NONE', *, *, #662, .F. ) ;
#20 = CARTESIAN_POINT ( 'NONE',  ( -0.01499999999999999424, 5.335640612625515639E-18, -0.3648035662068453977 ) ) ;
#21 = LINE ( 'NONE', #85, #870 ) ;
#22 = ORIENTED_EDGE ( 'NONE', *, *, #754, .T. ) ;
#23 = CIRCLE ( 'NONE', #469, 0.001000000000000003057 ) ;
#24 = CARTESIAN_POINT ( 'NONE',  ( -0.1329999999999999793, 0.007999999999999986289, 0.08499999999999999223 ) ) ;
#25 = EDGE_CURVE ( 'NONE', #156, #580, #610, .T. ) ;
#26 = DIRECTION ( 'NONE',  ( -1.000000000000000000, 0.000000000000000000, 0.000000000000000000 ) ) ;
#27 = EDGE_LOOP ( 'NONE', ( #44, #502, #15, #1109, #351, #814, #124, #81 ) ) ;
#28 = CLOSED_SHELL ( 'NONE', ( #878, #199, #1032, #552, #670, #400, #500, #127, #634, #303, #306, #998, #561, #179 ) ) ;
#29 = CARTESIAN_POINT ( 'NONE',  ( -0.1329999999999999793, 0.005999999999999984512, 0.08499999999999999223 ) ) ;
#30 = ORIENTED_EDGE ( 'NONE', *, *, #25, .T. ) ;
#31 = CIRCLE ( 'NONE', #318, 0.007000000000000003615 ) ;
#32 = DIRECTION ( 'NONE',  ( 0.000000000000000000, -0.000000000000000000, -1.000000000000000000 ) ) ;
#33 = PLANE ( 'NONE',  #68 ) ;
#34 = VERTEX_POINT ( 'NONE', #790 ) ;
#35 = MANIFOLD_SOLID_BREP ( 'Boss-Extrude2', #534 ) ;
#36 = VECTOR ( 'NONE', #385, 39.37007874015748143 ) ;
#37 = VERTEX_POINT ( 'NONE', #359 ) ;
#38 = STYLED_ITEM ( 'NONE', ( #353 ), #35 ) ;
#39 = APPLICATION_CONTEXT ( 'automotive_design' ) ;
#40 = LINE ( 'NONE', #926, #716 ) ;
#41 = ORIENTED_EDGE ( 'NONE', *, *, #119, .T. ) ;
#42 = ORIENTED_EDGE ( 'NONE', *, *, #1074, .F. ) ;
#43 = CARTESIAN_POINT ( 'NONE',  ( -0.1339999999999999802, 0.006999999999999985401, -0.08499999999999999223 ) ) ;
#44 = ORIENTED_EDGE ( 'NONE', *, *, #821, .T. ) ;
#45 = ORIENTED_EDGE ( 'NONE', *, *, #388, .T. ) ;
#46 = DIRECTION ( 'NONE',  ( -0.000000000000000000, -0.000000000000000000, -1.000000000000000000 ) ) ;
#47 = EDGE_LOOP ( 'NONE', ( #815, #1047, #647, #296 ) ) ;
#48 = CARTESIAN_POINT ( 'NONE',  ( 0.01500000000000001506, 0.006000000000000002727, 0.08999999999999999667 ) ) ;
#49 = ADVANCED_FACE ( 'NONE', ( #705 ), #274, .T. ) ;
#50 = LINE ( 'NONE', #251, #292 ) ;
#51 = EDGE_CURVE ( 'NONE', #608, #151, #886, .T. ) ;
#52 = DIRECTION ( 'NONE',  ( 1.000000000000000000, 1.716687499084838669E-16, -0.000000000000000000 ) ) ;
#53 = EDGE_CURVE ( 'NONE', #34, #419, #797, .T. ) ;
#54 = ORIENTED_EDGE ( 'NONE', *, *, #1041, .T. ) ;
#55 = PLANE ( 'NONE',  #1102 ) ;
#56 = ORIENTED_EDGE ( 'NONE', *, *, #90, .T. ) ;
#57 = CARTESIAN_POINT ( 'NONE',  ( 0.01499999999999999424, 0.006000000000000000125, 0.08999999999999999667 ) ) ;
#58 = FILL_AREA_STYLE_COLOUR ( '', #135 ) ;
#59 = DIRECTION ( 'NONE',  ( 0.000000000000000000, 0.000000000000000000, -1.000000000000000000 ) ) ;
#60 = VERTEX_POINT ( 'NONE', #1068 ) ;
#61 = VECTOR ( 'NONE', #80, 39.37007874015748143 ) ;
#62 = DIRECTION ( 'NONE',  ( -0.000000000000000000, -0.000000000000000000, -1.000000000000000000 ) ) ;
#63 = VERTEX_POINT ( 'NONE', #605 ) ;
#64 = DIRECTION ( 'NONE',  ( 0.000000000000000000, 1.000000000000000000, 0.000000000000000000 ) ) ;
#65 = LINE ( 'NONE', #332, #1070 ) ;
#66 = CARTESIAN_POINT ( 'NONE',  ( 0.1329999999999999793, 0.005999999999999984512, 0.08999999999999999667 ) ) ;
#67 = VERTEX_POINT ( 'NONE', #437 ) ;
#68 = AXIS2_PLACEMENT_3D ( 'NONE', #913, #494, #136 ) ;
#69 = DIRECTION ( 'NONE',  ( 0.000000000000000000, 1.000000000000000000, 0.000000000000000000 ) ) ;
#70 = DIRECTION ( 'NONE',  ( 0.000000000000000000, 0.000000000000000000, 1.000000000000000000 ) ) ;
#71 = LINE ( 'NONE', #933, #125 ) ;
#72 = VECTOR ( 'NONE', #206, 39.37007874015748143 ) ;
#73 = DIRECTION ( 'NONE',  ( 1.000000000000000000, 0.000000000000000000, 0.000000000000000000 ) ) ;
#74 = ORIENTED_EDGE ( 'NONE', *, *, #669, .T. ) ;
#75 = AXIS2_PLACEMENT_3D ( 'NONE', #863, #871, #497 ) ;
#76 = FACE_OUTER_BOUND ( 'NONE', #172, .T. ) ;
#77 = DIRECTION ( 'NONE',  ( -1.283763154917417211E-16, 1.000000000000000000, 0.000000000000000000 ) ) ;
#78 = MECHANICAL_DESIGN_GEOMETRIC_PRESENTATION_REPRESENTATION (  '', ( #673 ), #226 ) ;
#79 = VECTOR ( 'NONE', #951, 39.37007874015748143 ) ;
#80 = DIRECTION ( 'NONE',  ( 0.000000000000000000, -0.000000000000000000, -1.000000000000000000 ) ) ;
#81 = ORIENTED_EDGE ( 'NONE', *, *, #830, .T. ) ;
#82 = CYLINDRICAL_SURFACE ( 'NONE', #583, 0.007000000000000003615 ) ;
#83 = VECTOR ( 'NONE', #440, 39.37007874015748143 ) ;
#84 = SURFACE_STYLE_USAGE ( .BOTH. , #365 ) ;
#85 = CARTESIAN_POINT ( 'NONE',  ( -0.1399999999999999856, 0.006999999999999985401, 0.08999999999999999667 ) ) ;
#86 = AXIS2_PLACEMENT_3D ( 'NONE', #777, #1060, #621 ) ;
#87 = ORIENTED_EDGE ( 'NONE', *, *, #119, .F. ) ;
#88 = DIRECTION ( 'NONE',  ( 0.000000000000000000, -0.000000000000000000, -1.000000000000000000 ) ) ;
#89 = PLANE ( 'NONE',  #17 ) ;
#90 = EDGE_CURVE ( 'NONE', #1088, #703, #988, .T. ) ;
#91 = APPLICATION_PROTOCOL_DEFINITION ( 'draft international standard', 'automotive_design', 1998, #1133 ) ;
#92 = VECTOR ( 'NONE', #992, 39.37007874015748143 ) ;
#93 = ADVANCED_FACE ( 'NONE', ( #785 ), #536, .T. ) ;
#94 = EDGE_CURVE ( 'NONE', #1118, #37, #694, .T. ) ;
#95 = COLOUR_RGB ( '',0.2509803921568627416, 0.2509803921568627416, 0.2509803921568627416 ) ;
#96 = LINE ( 'NONE', #710, #279 ) ;
#97 = LINE ( 'NONE', #208, #540 ) ;
#98 =( NAMED_UNIT ( * ) PLANE_ANGLE_UNIT ( ) SI_UNIT ( $, .RADIAN. ) );
#99 = DIRECTION ( 'NONE',  ( -1.000000000000000000, 0.000000000000000000, 0.000000000000000000 ) ) ;
#100 = ORIENTED_EDGE ( 'NONE', *, *, #134, .T. ) ;
#101 = FACE_OUTER_BOUND ( 'NONE', #671, .T. ) ;
#102 = CARTESIAN_POINT ( 'NONE',  ( 0.1329999999999999793, -1.493979371535143794E-17, -0.08499999999999999223 ) ) ;
#103 = DIRECTION ( 'NONE',  ( 0.000000000000000000, 0.000000000000000000, 1.000000000000000000 ) ) ;
#104 = ORIENTED_EDGE ( 'NONE', *, *, #355, .T. ) ;
#105 = EDGE_CURVE ( 'NONE', #1080, #137, #373, .T. ) ;
#106 = CARTESIAN_POINT ( 'NONE',  ( 0.1329999999999999793, 0.006999999999999985401, 0.08499999999999999223 ) ) ;
#107 = ORIENTED_EDGE ( 'NONE', *, *, #907, .F. ) ;
#108 = EDGE_CURVE ( 'NONE', #67, #555, #293, .T. ) ;
#109 = CARTESIAN_POINT ( 'NONE',  ( 0.1329999999999999793, 0.006999999999999985401, 0.08499999999999999223 ) ) ;
#110 = VECTOR ( 'NONE', #64, 39.37007874015748143 ) ;
#111 = CARTESIAN_POINT ( 'NONE',  ( 0.1329999999999999793, 0.006999999999999985401, 0.08499999999999999223 ) ) ;
#112 = LINE ( 'NONE', #378, #986 ) ;
#113 = EDGE_LOOP ( 'NONE', ( #559, #943, #128, #19, #657, #588 ) ) ;
#114 = SURFACE_STYLE_FILL_AREA ( #850 ) ;
#115 = VERTEX_POINT ( 'NONE', #650 ) ;
#116 = DIRECTION ( 'NONE',  ( -0.000000000000000000, -0.000000000000000000, -1.000000000000000000 ) ) ;
#117 = CARTESIAN_POINT ( 'NONE',  ( -0.1329999999999999793, 0.01399999999999998641, 0.08999999999999999667 ) ) ;
#118 = ORIENTED_EDGE ( 'NONE', *, *, #644, .T. ) ;
#119 = EDGE_CURVE ( 'NONE', #768, #641, #912, .T. ) ;
#120 = VECTOR ( 'NONE', #672, 39.37007874015748143 ) ;
#121 = DIRECTION ( 'NONE',  ( -0.000000000000000000, 0.000000000000000000, -1.000000000000000000 ) ) ;
#122 = VERTEX_POINT ( 'NONE', #726 ) ;
#123 = PLANE ( 'NONE',  #806 ) ;
#124 = ORIENTED_EDGE ( 'NONE', *, *, #545, .T. ) ;
#125 = VECTOR ( 'NONE', #349, 39.37007874015748143 ) ;
#126 = EDGE_CURVE ( 'NONE', #63, #641, #902, .T. ) ;
#127 = ADVANCED_FACE ( 'NONE', ( #459 ), #1073, .F. ) ;
#128 = ORIENTED_EDGE ( 'NONE', *, *, #1057, .F. ) ;
#129 = AXIS2_PLACEMENT_3D ( 'NONE', #979, #185, #158 ) ;
#130 = PLANE ( 'NONE',  #960 ) ;
#131 = ORIENTED_EDGE ( 'NONE', *, *, #754, .F. ) ;
#132 = DIMENSIONAL_EXPONENTS ( 1.000000000000000000, 0.000000000000000000, 0.000000000000000000, 0.000000000000000000, 0.000000000000000000, 0.000000000000000000, 0.000000000000000000 ) ;
#133 = ORIENTED_EDGE ( 'NONE', *, *, #140, .T. ) ;
#134 = EDGE_CURVE ( 'NONE', #580, #698, #97, .T. ) ;
#135 = COLOUR_RGB ( '',0.7960784313725489669, 0.8235294117647058432, 0.9372549019607843146 ) ;
#136 = DIRECTION ( 'NONE',  ( 0.000000000000000000, 0.000000000000000000, 1.000000000000000000 ) ) ;
#137 = VERTEX_POINT ( 'NONE', #1002 ) ;
#138 = DIRECTION ( 'NONE',  ( 1.000000000000000000, 0.000000000000000000, 0.000000000000000000 ) ) ;
#139 = DIRECTION ( 'NONE',  ( 1.000000000000000000, 0.000000000000000000, 0.000000000000000000 ) ) ;
#140 = EDGE_CURVE ( 'NONE', #854, #504, #392, .T. ) ;
#141 = ORIENTED_EDGE ( 'NONE', *, *, #386, .F. ) ;
#142 = FACE_OUTER_BOUND ( 'NONE', #846, .T. ) ;
#143 = ORIENTED_EDGE ( 'NONE', *, *, #418, .F. ) ;
#144 = DIRECTION ( 'NONE',  ( -1.000000000000000000, 0.000000000000000000, 0.000000000000000000 ) ) ;
#145 = CARTESIAN_POINT ( 'NONE',  ( -0.1329999999999999793, 0.06899999999999999190, -0.08999999999999999667 ) ) ;
#146 = EDGE_CURVE ( 'NONE', #67, #580, #454, .T. ) ;
#147 = DIRECTION ( 'NONE',  ( -1.000000000000000000, 0.000000000000000000, 0.000000000000000000 ) ) ;
#148 = ORIENTED_EDGE ( 'NONE', *, *, #134, .F. ) ;
#149 = AXIS2_PLACEMENT_3D ( 'NONE', #297, #642, #191 ) ;
#150 = DIRECTION ( 'NONE',  ( 0.000000000000000000, 0.000000000000000000, 1.000000000000000000 ) ) ;
#151 = VERTEX_POINT ( 'NONE', #563 ) ;
#152 = DIRECTION ( 'NONE',  ( 0.000000000000000000, -0.000000000000000000, -1.000000000000000000 ) ) ;
#153 = UNCERTAINTY_MEASURE_WITH_UNIT (LENGTH_MEASURE( 1.000000000000000082E-05 ), #472, 'distance_accuracy_value', 'NONE');
#154 = PLANE ( 'NONE',  #719 ) ;
#155 = FACE_OUTER_BOUND ( 'NONE', #883, .T. ) ;
#156 = VERTEX_POINT ( 'NONE', #368 ) ;
#157 = DIRECTION ( 'NONE',  ( 1.266084213165376451E-16, -1.000000000000000000, 0.000000000000000000 ) ) ;
#158 = DIRECTION ( 'NONE',  ( 1.000000000000000000, 0.000000000000000000, 0.000000000000000000 ) ) ;
#159 = DIRECTION ( 'NONE',  ( -1.000000000000000000, -1.283763154917417211E-16, 0.000000000000000000 ) ) ;
#160 = FACE_OUTER_BOUND ( 'NONE', #233, .T. ) ;
#161 = ORIENTED_EDGE ( 'NONE', *, *, #4, .T. ) ;
#162 = VECTOR ( 'NONE', #569, 39.37007874015748143 ) ;
#163 = CARTESIAN_POINT ( 'NONE',  ( -0.1329999999999999793, 0.007999999999999986289, 0.08999999999999999667 ) ) ;
#164 = CARTESIAN_POINT ( 'NONE',  ( -0.01499999999999999424, 5.335640612625515639E-18, -0.08999999999999999667 ) ) ;
#165 = CARTESIAN_POINT ( 'NONE',  ( 0.01499999999999999424, 5.335640612625515639E-18, -0.3648035662068453977 ) ) ;
#166 = LINE ( 'NONE', #920, #301 ) ;
#167 = ORIENTED_EDGE ( 'NONE', *, *, #839, .F. ) ;
#168 = CARTESIAN_POINT ( 'NONE',  ( 0.1329999999999999793, 0.006999999999999985401, -0.08499999999999999223 ) ) ;
#169 =( CONVERSION_BASED_UNIT ( 'INCH', #6 ) LENGTH_UNIT ( ) NAMED_UNIT ( #204 ) );
#170 = CARTESIAN_POINT ( 'NONE',  ( 0.1329999999999999793, 0.006999999999999985401, -0.08999999999999999667 ) ) ;
#171 = CARTESIAN_POINT ( 'NONE',  ( -0.1339999999999999802, 0.006999999999999985401, 0.08499999999999999223 ) ) ;
#172 = EDGE_LOOP ( 'NONE', ( #626, #782, #818, #107 ) ) ;
#173 = PRODUCT ( 'WSHM2818R0150FEA', 'WSHM2818R0150FEA', '', ( #786 ) ) ;
#174 = FACE_OUTER_BOUND ( 'NONE', #732, .T. ) ;
#175 = LENGTH_MEASURE_WITH_UNIT ( LENGTH_MEASURE( 0.02539999999999999897 ), #1143 );
#176 = CIRCLE ( 'NONE', #1064, 0.001000000000000003057 ) ;
#177 = EDGE_CURVE ( 'NONE', #156, #357, #246, .T. ) ;
#178 = CARTESIAN_POINT ( 'NONE',  ( 0.000000000000000000, 0.000000000000000000, 0.000000000000000000 ) ) ;
#179 = ADVANCED_FACE ( 'NONE', ( #631 ), #984, .T. ) ;
#180 = FILL_AREA_STYLE ('',( #792 ) ) ;
#181 = VECTOR ( 'NONE', #784, 39.37007874015748143 ) ;
#182 = FACE_OUTER_BOUND ( 'NONE', #510, .T. ) ;
#183 = CARTESIAN_POINT ( 'NONE',  ( 0.01500000000000001506, 0.006000000000000002727, 0.08999999999999999667 ) ) ;
#184 = EDGE_LOOP ( 'NONE', ( #1059, #649, #456, #1098 ) ) ;
#185 = DIRECTION ( 'NONE',  ( 0.000000000000000000, 0.000000000000000000, 1.000000000000000000 ) ) ;
#186 = EDGE_CURVE ( 'NONE', #541, #326, #1031, .T. ) ;
#187 = EDGE_CURVE ( 'NONE', #115, #1062, #10, .T. ) ;
#188 = DIRECTION ( 'NONE',  ( 1.000000000000000000, 0.000000000000000000, 0.000000000000000000 ) ) ;
#189 =( GEOMETRIC_REPRESENTATION_CONTEXT ( 3 ) GLOBAL_UNCERTAINTY_ASSIGNED_CONTEXT ( ( #153 ) ) GLOBAL_UNIT_ASSIGNED_CONTEXT ( ( #472, #479, #507 ) ) REPRESENTATION_CONTEXT ( 'NONE', 'WORKASPACE' ) );
#190 = DIRECTION ( 'NONE',  ( 0.000000000000000000, 0.000000000000000000, -1.000000000000000000 ) ) ;
#191 = DIRECTION ( 'NONE',  ( -1.000000000000000000, 0.000000000000000000, 0.000000000000000000 ) ) ;
#192 = DIRECTION ( 'NONE',  ( 1.000000000000000000, 0.000000000000000000, 0.000000000000000000 ) ) ;
#193 = VECTOR ( 'NONE', #290, 39.37007874015748143 ) ;
#194 = VECTOR ( 'NONE', #666, 39.37007874015748143 ) ;
#195 = DIRECTION ( 'NONE',  ( -1.000000000000000000, 0.000000000000000000, 0.000000000000000000 ) ) ;
#196 = ORIENTED_EDGE ( 'NONE', *, *, #1112, .T. ) ;
#197 = CARTESIAN_POINT ( 'NONE',  ( 0.01500000000000001506, 0.006000000000000002727, -0.3648035662068453977 ) ) ;
#198 = VERTEX_POINT ( 'NONE', #637 ) ;
#199 = ADVANCED_FACE ( 'NONE', ( #718 ), #284, .F. ) ;
#200 = CARTESIAN_POINT ( 'NONE',  ( -0.01499999999999999424, 5.335640612625515639E-18, 0.08999999999999999667 ) ) ;
#201 = DIRECTION ( 'NONE',  ( -0.000000000000000000, 1.000000000000000000, -0.000000000000000000 ) ) ;
#202 = EDGE_LOOP ( 'NONE', ( #749, #319, #911, #42 ) ) ;
#203 = DIRECTION ( 'NONE',  ( 1.000000000000000000, 0.000000000000000000, 0.000000000000000000 ) ) ;
#204 = DIMENSIONAL_EXPONENTS ( 1.000000000000000000, 0.000000000000000000, 0.000000000000000000, 0.000000000000000000, 0.000000000000000000, 0.000000000000000000, 0.000000000000000000 ) ;
#205 = ORIENTED_EDGE ( 'NONE', *, *, #140, .F. ) ;
#206 = DIRECTION ( 'NONE',  ( 0.000000000000000000, 0.000000000000000000, 1.000000000000000000 ) ) ;
#207 = ORIENTED_EDGE ( 'NONE', *, *, #108, .F. ) ;
#208 = CARTESIAN_POINT ( 'NONE',  ( 0.1329999999999999793, 0.005999999999999984512, -0.08499999999999999223 ) ) ;
#209 = LINE ( 'NONE', #1014, #218 ) ;
#210 = EDGE_LOOP ( 'NONE', ( #517, #87, #932, #941 ) ) ;
#211 = EDGE_CURVE ( 'NONE', #34, #405, #997, .T. ) ;
#212 = DIRECTION ( 'NONE',  ( 1.000000000000000000, 1.266084213165376451E-16, 0.000000000000000000 ) ) ;
#213 = EDGE_LOOP ( 'NONE', ( #594, #919, #54, #578, #30, #100 ) ) ;
#214 = CARTESIAN_POINT ( 'NONE',  ( 0.1329999999999999793, 0.007999999999999986289, 0.08499999999999999223 ) ) ;
#215 = CARTESIAN_POINT ( 'NONE',  ( -0.01499999999999999424, 0.006000000000000000125, 0.08999999999999999667 ) ) ;
#216 = ORIENTED_EDGE ( 'NONE', *, *, #498, .F. ) ;
#217 = EDGE_CURVE ( 'NONE', #566, #836, #557, .T. ) ;
#218 = VECTOR ( 'NONE', #931, 39.37007874015748143 ) ;
#219 = ORIENTED_EDGE ( 'NONE', *, *, #907, .T. ) ;
#220 = VECTOR ( 'NONE', #270, 39.37007874015748143 ) ;
#221 = CARTESIAN_POINT ( 'NONE',  ( 0.1329999999999999793, -1.493979371535143794E-17, -0.08999999999999999667 ) ) ;
#222 = ORIENTED_EDGE ( 'NONE', *, *, #1056, .T. ) ;
#223 = VECTOR ( 'NONE', #152, 39.37007874015748143 ) ;
#224 = EDGE_CURVE ( 'NONE', #562, #63, #112, .T. ) ;
#225 = ORIENTED_EDGE ( 'NONE', *, *, #508, .F. ) ;
#226 =( GEOMETRIC_REPRESENTATION_CONTEXT ( 3 ) GLOBAL_UNCERTAINTY_ASSIGNED_CONTEXT ( ( #598 ) ) GLOBAL_UNIT_ASSIGNED_CONTEXT ( ( #617, #623, #720 ) ) REPRESENTATION_CONTEXT ( 'NONE', 'WORKASPACE' ) );
#227 = DIRECTION ( 'NONE',  ( -1.000000000000000000, 0.000000000000000000, 0.000000000000000000 ) ) ;
#228 = CARTESIAN_POINT ( 'NONE',  ( 0.1330000000000000349, 0.006000000000000018339, 0.08999999999999999667 ) ) ;
#229 = CYLINDRICAL_SURFACE ( 'NONE', #811, 0.001000000000000003057 ) ;
#230 = EDGE_CURVE ( 'NONE', #504, #1080, #343, .T. ) ;
#231 = AXIS2_PLACEMENT_3D ( 'NONE', #434, #858, #781 ) ;
#232 = ADVANCED_FACE ( 'NONE', ( #904 ), #468, .T. ) ;
#233 = EDGE_LOOP ( 'NONE', ( #205, #329, #490, #45 ) ) ;
#234 = STYLED_ITEM ( 'NONE', ( #773 ), #799 ) ;
#235 = DIRECTION ( 'NONE',  ( -1.000000000000000000, 0.000000000000000000, 0.000000000000000000 ) ) ;
#236 = ORIENTED_EDGE ( 'NONE', *, *, #7, .F. ) ;
#237 = CARTESIAN_POINT ( 'NONE',  ( -0.1329999999999999793, 0.005999999999999984512, -0.08999999999999999667 ) ) ;
#238 = CARTESIAN_POINT ( 'NONE',  ( -0.1329999999999999793, 0.01399999999999998641, 0.08499999999999999223 ) ) ;
#239 = CARTESIAN_POINT ( 'NONE',  ( 0.1330000000000000349, 0.006000000000000018339, -0.08999999999999999667 ) ) ;
#240 = ORIENTED_EDGE ( 'NONE', *, *, #1013, .F. ) ;
#241 = CARTESIAN_POINT ( 'NONE',  ( -0.1329999999999999793, 0.005999999999999984512, 0.08999999999999999667 ) ) ;
#242 = ORIENTED_EDGE ( 'NONE', *, *, #660, .T. ) ;
#243 = CARTESIAN_POINT ( 'NONE',  ( -0.1399999999999999856, 0.006999999999999985401, 0.08499999999999999223 ) ) ;
#244 = CARTESIAN_POINT ( 'NONE',  ( 0.1329999999999999793, 0.007999999999999986289, -0.08499999999999999223 ) ) ;
#245 = ORIENTED_EDGE ( 'NONE', *, *, #187, .F. ) ;
#246 = CIRCLE ( 'NONE', #832, 0.001000000000000003057 ) ;
#247 = DIRECTION ( 'NONE',  ( 0.000000000000000000, 1.000000000000000000, 0.000000000000000000 ) ) ;
#248 = ORIENTED_EDGE ( 'NONE', *, *, #1006, .T. ) ;
#249 = VECTOR ( 'NONE', #346, 39.37007874015748143 ) ;
#250 = DIRECTION ( 'NONE',  ( 0.000000000000000000, 0.000000000000000000, 1.000000000000000000 ) ) ;
#251 = CARTESIAN_POINT ( 'NONE',  ( 0.01499999999999999424, 0.006000000000000000125, 0.08999999999999999667 ) ) ;
#252 = LINE ( 'NONE', #1095, #528 ) ;
#253 = ORIENTED_EDGE ( 'NONE', *, *, #821, .F. ) ;
#254 = PLANE ( 'NONE',  #471 ) ;
#255 = DIRECTION ( 'NONE',  ( -1.000000000000000000, 0.000000000000000000, 0.000000000000000000 ) ) ;
#256 = CARTESIAN_POINT ( 'NONE',  ( 0.1329999999999999793, 0.007999999999999986289, -0.08499999999999999223 ) ) ;
#257 = CARTESIAN_POINT ( 'NONE',  ( 0.01499999999999999424, 5.335640612625515639E-18, -0.08999999999999999667 ) ) ;
#258 = ORIENTED_EDGE ( 'NONE', *, *, #467, .T. ) ;
#259 = FACE_OUTER_BOUND ( 'NONE', #1099, .T. ) ;
#260 = CYLINDRICAL_SURFACE ( 'NONE', #1079, 0.007000000000000003615 ) ;
#261 = APPLICATION_PROTOCOL_DEFINITION ( 'draft international standard', 'automotive_design', 1998, #39 ) ;
#262 = CARTESIAN_POINT ( 'NONE',  ( 0.1329999999999999793, 0.01399999999999998641, 0.08499999999999999223 ) ) ;
#263 = DIRECTION ( 'NONE',  ( 0.000000000000000000, 0.000000000000000000, -1.000000000000000000 ) ) ;
#264 = EDGE_CURVE ( 'NONE', #1023, #848, #697, .T. ) ;
#265 = VERTEX_POINT ( 'NONE', #244 ) ;
#266 = ADVANCED_FACE ( 'NONE', ( #160 ), #410, .F. ) ;
#267 = DIRECTION ( 'NONE',  ( 1.266084213165376205E-16, -1.000000000000000000, 0.000000000000000000 ) ) ;
#268 = DIRECTION ( 'NONE',  ( 0.000000000000000000, -1.000000000000000000, 0.000000000000000000 ) ) ;
#269 = DIRECTION ( 'NONE',  ( 1.266084213165376451E-16, -1.000000000000000000, 0.000000000000000000 ) ) ;
#270 = DIRECTION ( 'NONE',  ( -0.000000000000000000, -0.000000000000000000, -1.000000000000000000 ) ) ;
#271 = EDGE_CURVE ( 'NONE', #407, #34, #166, .T. ) ;
#272 = PRESENTATION_STYLE_ASSIGNMENT (( #891 ) ) ;
#273 = VERTEX_POINT ( 'NONE', #333 ) ;
#274 = PLANE ( 'NONE',  #603 ) ;
#275 = VECTOR ( 'NONE', #1066, 39.37007874015748143 ) ;
#276 = PRESENTATION_STYLE_ASSIGNMENT (( #84 ) ) ;
#277 = CARTESIAN_POINT ( 'NONE',  ( -0.1329999999999999793, 0.005999999999999984512, 0.08499999999999999223 ) ) ;
#278 = CARTESIAN_POINT ( 'NONE',  ( 0.1329999999999999793, 0.005999999999999984512, -0.08499999999999999223 ) ) ;
#279 = VECTOR ( 'NONE', #453, 39.37007874015748143 ) ;
#280 = CARTESIAN_POINT ( 'NONE',  ( 0.1329999999999999793, -1.492127187657557686E-17, 0.08999999999999999667 ) ) ;
#281 = CIRCLE ( 'NONE', #389, 0.001000000000000003057 ) ;
#282 = DIRECTION ( 'NONE',  ( 1.000000000000000000, 0.000000000000000000, 0.000000000000000000 ) ) ;
#283 = DIRECTION ( 'NONE',  ( 3.557093741750344791E-15, 1.000000000000000000, 0.000000000000000000 ) ) ;
#284 = CYLINDRICAL_SURFACE ( 'NONE', #1136, 0.001000000000000003057 ) ;
#285 = AXIS2_PLACEMENT_3D ( 'NONE', #905, #817, #633 ) ;
#286 =( LENGTH_UNIT ( ) NAMED_UNIT ( * ) SI_UNIT ( $, .METRE. ) );
#287 = CARTESIAN_POINT ( 'NONE',  ( -0.1329999999999999793, -1.493979371535143794E-17, -0.08499999999999999223 ) ) ;
#288 = ORIENTED_EDGE ( 'NONE', *, *, #508, .T. ) ;
#289 = LINE ( 'NONE', #200, #775 ) ;
#290 = DIRECTION ( 'NONE',  ( 0.000000000000000000, 1.000000000000000000, 0.000000000000000000 ) ) ;
#291 = ORIENTED_EDGE ( 'NONE', *, *, #709, .T. ) ;
#292 = VECTOR ( 'NONE', #759, 39.37007874015748143 ) ;
#293 = LINE ( 'NONE', #102, #396 ) ;
#294 = ORIENTED_EDGE ( 'NONE', *, *, #1057, .T. ) ;
#295 = DIRECTION ( 'NONE',  ( -1.000000000000000000, 0.000000000000000000, 0.000000000000000000 ) ) ;
#296 = ORIENTED_EDGE ( 'NONE', *, *, #334, .F. ) ;
#297 = CARTESIAN_POINT ( 'NONE',  ( 0.1329999999999999793, 0.006999999999999985401, -0.08499999999999999223 ) ) ;
#298 = ADVANCED_FACE ( 'NONE', ( #155 ), #516, .T. ) ;
#299 = CARTESIAN_POINT ( 'NONE',  ( -0.1329999999999999793, 0.005999999999999984512, 0.08499999999999999223 ) ) ;
#300 = ORIENTED_EDGE ( 'NONE', *, *, #887, .T. ) ;
#301 = VECTOR ( 'NONE', #509, 39.37007874015748143 ) ;
#302 = LINE ( 'NONE', #829, #572 ) ;
#303 = ADVANCED_FACE ( 'NONE', ( #425 ), #501, .F. ) ;
#304 = ORIENTED_EDGE ( 'NONE', *, *, #360, .T. ) ;
#305 = DIRECTION ( 'NONE',  ( -1.000000000000000000, -1.283763154917417211E-16, 0.000000000000000000 ) ) ;
#306 = ADVANCED_FACE ( 'NONE', ( #524 ), #948, .F. ) ;
#307 = FACE_OUTER_BOUND ( 'NONE', #184, .T. ) ;
#308 = VERTEX_POINT ( 'NONE', #767 ) ;
#309 = EDGE_LOOP ( 'NONE', ( #826, #748, #288, #685 ) ) ;
#310 = DIRECTION ( 'NONE',  ( 0.000000000000000000, 0.000000000000000000, 1.000000000000000000 ) ) ;
#311 = EDGE_LOOP ( 'NONE', ( #240, #1094, #300, #236 ) ) ;
#312 = VECTOR ( 'NONE', #1009, 39.37007874015748143 ) ;
#313 = ORIENTED_EDGE ( 'NONE', *, *, #94, .F. ) ;
#314 = EDGE_CURVE ( 'NONE', #419, #770, #774, .T. ) ;
#315 = DIRECTION ( 'NONE',  ( 0.000000000000000000, -0.000000000000000000, -1.000000000000000000 ) ) ;
#316 = CARTESIAN_POINT ( 'NONE',  ( 0.1329999999999999793, 0.005999999999999984512, 0.08499999999999999223 ) ) ;
#317 = DIRECTION ( 'NONE',  ( 0.000000000000000000, 0.000000000000000000, 1.000000000000000000 ) ) ;
#318 = AXIS2_PLACEMENT_3D ( 'NONE', #803, #558, #465 ) ;
#319 = ORIENTED_EDGE ( 'NONE', *, *, #53, .T. ) ;
#320 = EDGE_CURVE ( 'NONE', #1023, #265, #940, .T. ) ;
#321 = CARTESIAN_POINT ( 'NONE',  ( -0.1329999999999999793, 0.005999999999999984512, -0.08999999999999999667 ) ) ;
#322 = ORIENTED_EDGE ( 'NONE', *, *, #969, .F. ) ;
#323 = DIRECTION ( 'NONE',  ( -0.000000000000000000, -0.000000000000000000, 1.000000000000000000 ) ) ;
#324 = VECTOR ( 'NONE', #52, 39.37007874015748143 ) ;
#325 = CARTESIAN_POINT ( 'NONE',  ( 0.1330000000000000349, 0.006000000000000018339, -0.3648035662068453977 ) ) ;
#326 = VERTEX_POINT ( 'NONE', #677 ) ;
#327 = CIRCLE ( 'NONE', #86, 0.007000000000000003615 ) ;
#328 = DIRECTION ( 'NONE',  ( 0.000000000000000000, -0.000000000000000000, -1.000000000000000000 ) ) ;
#329 = ORIENTED_EDGE ( 'NONE', *, *, #355, .F. ) ;
#330 = CARTESIAN_POINT ( 'NONE',  ( 0.1339999999999999802, 0.006999999999999985401, -0.08499999999999999223 ) ) ;
#331 = UNCERTAINTY_MEASURE_WITH_UNIT (LENGTH_MEASURE( 1.000000000000000082E-05 ), #800, 'distance_accuracy_value', 'NONE');
#332 = CARTESIAN_POINT ( 'NONE',  ( -0.01499999999999999424, 0.006000000000000000125, 0.08999999999999999667 ) ) ;
#333 = CARTESIAN_POINT ( 'NONE',  ( -0.1329999999999999793, 0.005999999999999984512, 0.08999999999999999667 ) ) ;
#334 = EDGE_CURVE ( 'NONE', #1038, #265, #581, .T. ) ;
#335 = ORIENTED_EDGE ( 'NONE', *, *, #363, .F. ) ;
#336 = AXIS2_PLACEMENT_3D ( 'NONE', #717, #975, #282 ) ;
#337 = CARTESIAN_POINT ( 'NONE',  ( -0.01499999999999999424, 0.006000000000000000125, 0.08999999999999999667 ) ) ;
#338 = VERTEX_POINT ( 'NONE', #66 ) ;
#339 = CARTESIAN_POINT ( 'NONE',  ( 0.1329999999999999793, 0.005999999999999984512, -0.08999999999999999667 ) ) ;
#340 = DIRECTION ( 'NONE',  ( 0.000000000000000000, 0.000000000000000000, 1.000000000000000000 ) ) ;
#341 = DIRECTION ( 'NONE',  ( -1.000000000000000000, 0.000000000000000000, 0.000000000000000000 ) ) ;
#342 = VERTEX_POINT ( 'NONE', #1131 ) ;
#343 = CIRCLE ( 'NONE', #600, 0.001000000000000003057 ) ;
#344 = PRODUCT_DEFINITION ( 'UNKNOWN', '', #1022, #822 ) ;
#345 = DIRECTION ( 'NONE',  ( -0.000000000000000000, -0.000000000000000000, 1.000000000000000000 ) ) ;
#346 = DIRECTION ( 'NONE',  ( 1.000000000000000000, 1.266084213165376205E-16, 0.000000000000000000 ) ) ;
#347 = EDGE_CURVE ( 'NONE', #906, #810, #1139, .T. ) ;
#348 = MECHANICAL_DESIGN_GEOMETRIC_PRESENTATION_REPRESENTATION (  '', ( #38 ), #577 ) ;
#349 = DIRECTION ( 'NONE',  ( 0.000000000000000000, 0.000000000000000000, 1.000000000000000000 ) ) ;
#350 = DIRECTION ( 'NONE',  ( -0.000000000000000000, -0.000000000000000000, -1.000000000000000000 ) ) ;
#351 = ORIENTED_EDGE ( 'NONE', *, *, #7, .T. ) ;
#352 = FACE_OUTER_BOUND ( 'NONE', #548, .T. ) ;
#353 = PRESENTATION_STYLE_ASSIGNMENT (( #889 ) ) ;
#354 = FACE_OUTER_BOUND ( 'NONE', #397, .T. ) ;
#355 = EDGE_CURVE ( 'NONE', #764, #854, #176, .T. ) ;
#356 = DIRECTION ( 'NONE',  ( -5.420333320762426035E-16, 1.000000000000000000, 0.000000000000000000 ) ) ;
#357 = VERTEX_POINT ( 'NONE', #1052 ) ;
#358 = CARTESIAN_POINT ( 'NONE',  ( 0.1329999999999999793, 0.005999999999999984512, 0.08999999999999999667 ) ) ;
#359 = CARTESIAN_POINT ( 'NONE',  ( -0.1329999999999999793, 0.005999999999999984512, -0.08999999999999999667 ) ) ;
#360 = EDGE_CURVE ( 'NONE', #770, #840, #252, .T. ) ;
#361 = ORIENTED_EDGE ( 'NONE', *, *, #1083, .T. ) ;
#362 = DIRECTION ( 'NONE',  ( -5.420333320762426035E-16, 1.000000000000000000, 0.000000000000000000 ) ) ;
#363 = EDGE_CURVE ( 'NONE', #566, #407, #607, .T. ) ;
#364 = CARTESIAN_POINT ( 'NONE',  ( 0.01499999999999999424, 5.335640612625515639E-18, 0.08999999999999999667 ) ) ;
#365 = SURFACE_SIDE_STYLE ('',( #890 ) ) ;
#366 = CYLINDRICAL_SURFACE ( 'NONE', #336, 0.007000000000000003615 ) ;
#367 = CARTESIAN_POINT ( 'NONE',  ( 0.1330000000000000349, 0.006000000000000018339, -0.08999999999999999667 ) ) ;
#368 = CARTESIAN_POINT ( 'NONE',  ( 0.1329999999999999793, 0.005999999999999984512, 0.08499999999999999223 ) ) ;
#369 = VECTOR ( 'NONE', #62, 39.37007874015748143 ) ;
#370 = ORIENTED_EDGE ( 'NONE', *, *, #347, .F. ) ;
#371 = VECTOR ( 'NONE', #896, 39.37007874015748143 ) ;
#372 = DIRECTION ( 'NONE',  ( -1.000000000000000000, -1.716687499084838669E-16, 0.000000000000000000 ) ) ;
#373 = LINE ( 'NONE', #542, #893 ) ;
#374 = VECTOR ( 'NONE', #431, 39.37007874015748143 ) ;
#375 = ORIENTED_EDGE ( 'NONE', *, *, #887, .F. ) ;
#376 = CARTESIAN_POINT ( 'NONE',  ( 0.1329999999999999793, 0.06900000000000003353, -0.3648035662068453977 ) ) ;
#377 = ORIENTED_EDGE ( 'NONE', *, *, #1112, .F. ) ;
#378 = CARTESIAN_POINT ( 'NONE',  ( -0.01499999999999999424, 5.335640612625515639E-18, 0.08999999999999999667 ) ) ;
#379 = AXIS2_PLACEMENT_3D ( 'NONE', #325, #593, #356 ) ;
#380 = ORIENTED_EDGE ( 'NONE', *, *, #4, .F. ) ;
#381 = EDGE_CURVE ( 'NONE', #990, #63, #1008, .T. ) ;
#382 = MECHANICAL_DESIGN_GEOMETRIC_PRESENTATION_REPRESENTATION (  '', ( #234 ), #189 ) ;
#383 = LINE ( 'NONE', #1065, #632 ) ;
#384 = ADVANCED_FACE ( 'NONE', ( #760 ), #1111, .T. ) ;
#385 = DIRECTION ( 'NONE',  ( -0.000000000000000000, -0.000000000000000000, -1.000000000000000000 ) ) ;
#386 = EDGE_CURVE ( 'NONE', #925, #838, #702, .T. ) ;
#387 = ORIENTED_EDGE ( 'NONE', *, *, #1006, .F. ) ;
#388 = EDGE_CURVE ( 'NONE', #1118, #504, #23, .T. ) ;
#389 = AXIS2_PLACEMENT_3D ( 'NONE', #106, #543, #99 ) ;
#390 = ADVANCED_FACE ( 'NONE', ( #780 ), #696, .T. ) ;
#391 = ORIENTED_EDGE ( 'NONE', *, *, #427, .T. ) ;
#392 = LINE ( 'NONE', #739, #36 ) ;
#393 = LINE ( 'NONE', #117, #12 ) ;
#394 = ORIENTED_EDGE ( 'NONE', *, *, #334, .T. ) ;
#395 = VECTOR ( 'NONE', #897, 39.37007874015748143 ) ;
#396 = VECTOR ( 'NONE', #32, 39.37007874015748143 ) ;
#397 = EDGE_LOOP ( 'NONE', ( #495, #788, #391, #949 ) ) ;
#398 = FACE_OUTER_BOUND ( 'NONE', #957, .T. ) ;
#399 = ORIENTED_EDGE ( 'NONE', *, *, #947, .F. ) ;
#400 = ADVANCED_FACE ( 'NONE', ( #354 ), #968, .T. ) ;
#401 = ORIENTED_EDGE ( 'NONE', *, *, #16, .F. ) ;
#402 = CARTESIAN_POINT ( 'NONE',  ( 0.1329999999999999793, 0.005999999999999984512, -0.08499999999999999223 ) ) ;
#403 = ORIENTED_EDGE ( 'NONE', *, *, #53, .F. ) ;
#404 = MANIFOLD_SOLID_BREP ( 'Mirror2', #28 ) ;
#405 = VERTEX_POINT ( 'NONE', #183 ) ;
#406 = CYLINDRICAL_SURFACE ( 'NONE', #862, 0.007000000000000003615 ) ;
#407 = VERTEX_POINT ( 'NONE', #714 ) ;
#408 = CARTESIAN_POINT ( 'NONE',  ( 0.1330000000000000349, 0.006000000000000018339, 0.08999999999999999667 ) ) ;
#409 = CARTESIAN_POINT ( 'NONE',  ( -0.01499999999999999424, 0.006000000000000000125, 0.08999999999999999667 ) ) ;
#410 = CYLINDRICAL_SURFACE ( 'NONE', #2, 0.001000000000000003057 ) ;
#411 = ORIENTED_EDGE ( 'NONE', *, *, #644, .F. ) ;
#412 = DIRECTION ( 'NONE',  ( -1.000000000000000000, 0.000000000000000000, 0.000000000000000000 ) ) ;
#413 = ORIENTED_EDGE ( 'NONE', *, *, #211, .T. ) ;
#414 = CARTESIAN_POINT ( 'NONE',  ( -0.1329999999999999793, 0.007999999999999986289, -0.08499999999999999223 ) ) ;
#415 = DIRECTION ( 'NONE',  ( 1.000000000000000000, -3.557093741750344791E-15, 0.000000000000000000 ) ) ;
#416 =( GEOMETRIC_REPRESENTATION_CONTEXT ( 3 ) GLOBAL_UNCERTAINTY_ASSIGNED_CONTEXT ( ( #331 ) ) GLOBAL_UNIT_ASSIGNED_CONTEXT ( ( #800, #1071, #539 ) ) REPRESENTATION_CONTEXT ( 'NONE', 'WORKASPACE' ) );
#417 = CARTESIAN_POINT ( 'NONE',  ( -0.1329999999999999793, 0.006999999999999985401, 0.08999999999999999667 ) ) ;
#418 = EDGE_CURVE ( 'NONE', #848, #757, #983, .T. ) ;
#419 = VERTEX_POINT ( 'NONE', #367 ) ;
#420 = CARTESIAN_POINT ( 'NONE',  ( 0.1329999999999999793, 0.006999999999999985401, 0.08999999999999999667 ) ) ;
#421 = ORIENTED_EDGE ( 'NONE', *, *, #264, .T. ) ;
#422 = CARTESIAN_POINT ( 'NONE',  ( 0.1329999999999999793, 0.006999999999999985401, 0.08999999999999999667 ) ) ;
#423 = DIRECTION ( 'NONE',  ( -1.000000000000000000, 0.000000000000000000, 0.000000000000000000 ) ) ;
#424 = AXIS2_PLACEMENT_3D ( 'NONE', #747, #659, #735 ) ;
#425 = FACE_OUTER_BOUND ( 'NONE', #745, .T. ) ;
#426 = ADVANCED_FACE ( 'NONE', ( #796 ), #894, .F. ) ;
#427 = EDGE_CURVE ( 'NONE', #326, #698, #96, .T. ) ;
#428 = EDGE_LOOP ( 'NONE', ( #411, #964, #161, #761 ) ) ;
#429 = AXIS2_PLACEMENT_3D ( 'NONE', #648, #415, #946 ) ;
#430 = DIRECTION ( 'NONE',  ( 1.000000000000000000, -1.716687499084838669E-16, 0.000000000000000000 ) ) ;
#431 = DIRECTION ( 'NONE',  ( 1.000000000000000000, -1.266084213165376451E-16, 0.000000000000000000 ) ) ;
#432 = DIRECTION ( 'NONE',  ( 1.000000000000000000, 1.266084213165376451E-16, 0.000000000000000000 ) ) ;
#433 = VECTOR ( 'NONE', #779, 39.37007874015748143 ) ;
#434 = CARTESIAN_POINT ( 'NONE',  ( 0.1329999999999999793, 0.006999999999999985401, -0.08499999999999999223 ) ) ;
#435 = ORIENTED_EDGE ( 'NONE', *, *, #828, .T. ) ;
#436 = LINE ( 'NONE', #965, #444 ) ;
#437 = CARTESIAN_POINT ( 'NONE',  ( 0.1329999999999999793, -1.493979371535143794E-17, -0.08499999999999999223 ) ) ;
#438 = VECTOR ( 'NONE', #88, 39.37007874015748143 ) ;
#439 = LINE ( 'NONE', #1106, #619 ) ;
#440 = DIRECTION ( 'NONE',  ( 0.000000000000000000, 1.000000000000000000, 0.000000000000000000 ) ) ;
#441 = EDGE_CURVE ( 'NONE', #708, #405, #535, .T. ) ;
#442 = ORIENTED_EDGE ( 'NONE', *, *, #1140, .F. ) ;
#443 = PLANE ( 'NONE',  #1069 ) ;
#444 = VECTOR ( 'NONE', #69, 39.37007874015748143 ) ;
#445 =( LENGTH_UNIT ( ) NAMED_UNIT ( * ) SI_UNIT ( $, .METRE. ) );
#446 = ORIENTED_EDGE ( 'NONE', *, *, #908, .F. ) ;
#447 = CARTESIAN_POINT ( 'NONE',  ( 0.1329999999999999793, 0.01399999999999998641, 0.08999999999999999667 ) ) ;
#448 = DIRECTION ( 'NONE',  ( 0.000000000000000000, -0.000000000000000000, -1.000000000000000000 ) ) ;
#449 = DIRECTION ( 'NONE',  ( 0.000000000000000000, 0.000000000000000000, 1.000000000000000000 ) ) ;
#450 =( LENGTH_UNIT ( ) NAMED_UNIT ( * ) SI_UNIT ( $, .METRE. ) );
#451 = AXIS2_PLACEMENT_3D ( 'NONE', #873, #147, #1037 ) ;
#452 = LINE ( 'NONE', #8, #220 ) ;
#453 = DIRECTION ( 'NONE',  ( 1.000000000000000000, -1.266084213165376451E-16, 0.000000000000000000 ) ) ;
#454 = LINE ( 'NONE', #278, #193 ) ;
#455 = DIRECTION ( 'NONE',  ( 1.000000000000000000, -0.000000000000000000, -0.000000000000000000 ) ) ;
#456 = ORIENTED_EDGE ( 'NONE', *, *, #707, .T. ) ;
#457 = PLANE ( 'NONE',  #1016 ) ;
#458 = ORIENTED_EDGE ( 'NONE', *, *, #187, .T. ) ;
#459 = FACE_OUTER_BOUND ( 'NONE', #213, .T. ) ;
#460 = VECTOR ( 'NONE', #283, 39.37007874015748143 ) ;
#461 = CARTESIAN_POINT ( 'NONE',  ( 0.01499999999999999424, 5.335640612625515639E-18, 0.08999999999999999667 ) ) ;
#462 = ORIENTED_EDGE ( 'NONE', *, *, #928, .F. ) ;
#463 = CARTESIAN_POINT ( 'NONE',  ( 0.1329999999999999793, 0.006999999999999985401, 0.08999999999999999667 ) ) ;
#464 = CIRCLE ( 'NONE', #756, 0.007000000000000003615 ) ;
#465 = DIRECTION ( 'NONE',  ( -1.000000000000000000, 0.000000000000000000, 0.000000000000000000 ) ) ;
#466 = EDGE_CURVE ( 'NONE', #738, #990, #813, .T. ) ;
#467 = EDGE_CURVE ( 'NONE', #810, #137, #393, .T. ) ;
#468 = PLANE ( 'NONE',  #651 ) ;
#469 = AXIS2_PLACEMENT_3D ( 'NONE', #1146, #263, #188 ) ;
#470 = VERTEX_POINT ( 'NONE', #1003 ) ;
#471 = AXIS2_PLACEMENT_3D ( 'NONE', #518, #267, #769 ) ;
#472 =( CONVERSION_BASED_UNIT ( 'INCH', #1120 ) LENGTH_UNIT ( ) NAMED_UNIT ( #132 ) );
#473 = ORIENTED_EDGE ( 'NONE', *, *, #105, .T. ) ;
#474 = DIRECTION ( 'NONE',  ( -1.266084213165376451E-16, -1.000000000000000000, 0.000000000000000000 ) ) ;
#475 = CARTESIAN_POINT ( 'NONE',  ( 0.01499999999999999424, 5.335640612625515639E-18, -0.08999999999999999667 ) ) ;
#476 = VECTOR ( 'NONE', #247, 39.37007874015748143 ) ;
#477 = ORIENTED_EDGE ( 'NONE', *, *, #963, .F. ) ;
#478 = AXIS2_PLACEMENT_3D ( 'NONE', #706, #269, #432 ) ;
#479 =( NAMED_UNIT ( * ) PLANE_ANGLE_UNIT ( ) SI_UNIT ( $, .RADIAN. ) );
#480 = ORIENTED_EDGE ( 'NONE', *, *, #713, .F. ) ;
#481 = CARTESIAN_POINT ( 'NONE',  ( 0.1329999999999999793, 0.005999999999999984512, -0.08499999999999999223 ) ) ;
#482 = ORIENTED_EDGE ( 'NONE', *, *, #441, .F. ) ;
#483 = VECTOR ( 'NONE', #1055, 39.37007874015748143 ) ;
#484 = ORIENTED_EDGE ( 'NONE', *, *, #466, .T. ) ;
#485 = DIRECTION ( 'NONE',  ( 1.000000000000000000, 0.000000000000000000, -0.000000000000000000 ) ) ;
#486 = ORIENTED_EDGE ( 'NONE', *, *, #146, .T. ) ;
#487 = AXIS2_PLACEMENT_3D ( 'NONE', #1005, #121, #295 ) ;
#488 = ORIENTED_EDGE ( 'NONE', *, *, #662, .T. ) ;
#489 = DIRECTION ( 'NONE',  ( 0.000000000000000000, 0.000000000000000000, 1.000000000000000000 ) ) ;
#490 = ORIENTED_EDGE ( 'NONE', *, *, #556, .T. ) ;
#491 = CARTESIAN_POINT ( 'NONE',  ( 0.01499999999999999424, 0.006000000000000000125, 0.08999999999999999667 ) ) ;
#492 = CARTESIAN_POINT ( 'NONE',  ( -0.01499999999999999424, 5.335640612625515639E-18, -0.08999999999999999667 ) ) ;
#493 = ORIENTED_EDGE ( 'NONE', *, *, #628, .T. ) ;
#494 = DIRECTION ( 'NONE',  ( 1.000000000000000000, 0.000000000000000000, -0.000000000000000000 ) ) ;
#495 = ORIENTED_EDGE ( 'NONE', *, *, #839, .T. ) ;
#496 = DIMENSIONAL_EXPONENTS ( 1.000000000000000000, 0.000000000000000000, 0.000000000000000000, 0.000000000000000000, 0.000000000000000000, 0.000000000000000000, 0.000000000000000000 ) ;
#497 = DIRECTION ( 'NONE',  ( -1.000000000000000000, 0.000000000000000000, 0.000000000000000000 ) ) ;
#498 = EDGE_CURVE ( 'NONE', #703, #764, #579, .T. ) ;
#499 = CARTESIAN_POINT ( 'NONE',  ( -0.01499999999999999424, 0.006000000000000000125, 0.08999999999999999667 ) ) ;
#500 = ADVANCED_FACE ( 'NONE', ( #142 ), #123, .F. ) ;
#501 = PLANE ( 'NONE',  #944 ) ;
#502 = ORIENTED_EDGE ( 'NONE', *, *, #963, .T. ) ;
#503 = FACE_OUTER_BOUND ( 'NONE', #687, .T. ) ;
#504 = VERTEX_POINT ( 'NONE', #43 ) ;
#505 = CARTESIAN_POINT ( 'NONE',  ( -0.1329999999999999793, 0.005999999999999984512, 0.08999999999999999667 ) ) ;
#506 = PRODUCT_RELATED_PRODUCT_CATEGORY ( 'part', '', ( #173 ) ) ;
#507 =( NAMED_UNIT ( * ) SI_UNIT ( $, .STERADIAN. ) SOLID_ANGLE_UNIT ( ) );
#508 = EDGE_CURVE ( 'NONE', #342, #999, #574, .T. ) ;
#509 = DIRECTION ( 'NONE',  ( 3.557093741750344791E-15, 1.000000000000000000, 0.000000000000000000 ) ) ;
#510 = EDGE_LOOP ( 'NONE', ( #571, #1018, #899, #143 ) ) ;
#511 = CARTESIAN_POINT ( 'NONE',  ( 0.01499999999999999424, 5.335640612625515639E-18, 0.08999999999999999667 ) ) ;
#512 = CARTESIAN_POINT ( 'NONE',  ( -0.1329999999999999793, 0.005999999999999984512, -0.3648035662068453977 ) ) ;
#513 = CARTESIAN_POINT ( 'NONE',  ( -0.1329999999999999793, 0.06899999999999999190, -0.3648035662068453977 ) ) ;
#514 = SURFACE_STYLE_USAGE ( .BOTH. , #689 ) ;
#515 = AXIS2_PLACEMENT_3D ( 'NONE', #958, #526, #1048 ) ;
#516 = PLANE ( 'NONE',  #636 ) ;
#517 = ORIENTED_EDGE ( 'NONE', *, *, #126, .T. ) ;
#518 = CARTESIAN_POINT ( 'NONE',  ( 0.01500000000000001506, 0.006000000000000002727, -0.3648035662068453977 ) ) ;
#519 = DIRECTION ( 'NONE',  ( -0.000000000000000000, -0.000000000000000000, -1.000000000000000000 ) ) ;
#520 = PLANE ( 'NONE',  #523 ) ;
#521 = DIRECTION ( 'NONE',  ( 1.000000000000000000, 0.000000000000000000, -0.000000000000000000 ) ) ;
#522 = EDGE_CURVE ( 'NONE', #115, #308, #1104, .T. ) ;
#523 = AXIS2_PLACEMENT_3D ( 'NONE', #513, #77, #159 ) ;
#524 = FACE_OUTER_BOUND ( 'NONE', #428, .T. ) ;
#525 = EDGE_LOOP ( 'NONE', ( #875, #196, #216, #935 ) ) ;
#526 = DIRECTION ( 'NONE',  ( -0.000000000000000000, -0.000000000000000000, 1.000000000000000000 ) ) ;
#527 = LINE ( 'NONE', #364, #79 ) ;
#528 = VECTOR ( 'NONE', #305, 39.37007874015748143 ) ;
#529 = ORIENTED_EDGE ( 'NONE', *, *, #498, .T. ) ;
#530 = CARTESIAN_POINT ( 'NONE',  ( -0.1329999999999999793, 0.006999999999999985401, 0.08999999999999999667 ) ) ;
#531 = DIRECTION ( 'NONE',  ( 0.000000000000000000, -0.000000000000000000, -1.000000000000000000 ) ) ;
#532 = AXIS2_PLACEMENT_3D ( 'NONE', #168, #345, #693 ) ;
#533 = SURFACE_STYLE_FILL_AREA ( #180 ) ;
#534 = CLOSED_SHELL ( 'NONE', ( #793, #1144, #49, #805, #728, #384, #1124, #93, #865, #746 ) ) ;
#535 = LINE ( 'NONE', #977, #460 ) ;
#536 = PLANE ( 'NONE',  #783 ) ;
#537 = VECTOR ( 'NONE', #455, 39.37007874015748143 ) ;
#538 = DIRECTION ( 'NONE',  ( 0.000000000000000000, 0.000000000000000000, -1.000000000000000000 ) ) ;
#539 =( NAMED_UNIT ( * ) SI_UNIT ( $, .STERADIAN. ) SOLID_ANGLE_UNIT ( ) );
#540 = VECTOR ( 'NONE', #824, 39.37007874015748143 ) ;
#541 = VERTEX_POINT ( 'NONE', #475 ) ;
#542 = CARTESIAN_POINT ( 'NONE',  ( -0.1329999999999999793, 0.007999999999999986289, -0.08499999999999999223 ) ) ;
#543 = DIRECTION ( 'NONE',  ( -0.000000000000000000, 0.000000000000000000, 1.000000000000000000 ) ) ;
#544 = VECTOR ( 'NONE', #362, 39.37007874015748143 ) ;
#545 = EDGE_CURVE ( 'NONE', #838, #273, #209, .T. ) ;
#546 = ADVANCED_FACE ( 'NONE', ( #307 ), #564, .T. ) ;
#547 = LINE ( 'NONE', #376, #684 ) ;
#548 = EDGE_LOOP ( 'NONE', ( #225, #661, #722, #253 ) ) ;
#549 = DIRECTION ( 'NONE',  ( 0.000000000000000000, 1.000000000000000000, 0.000000000000000000 ) ) ;
#550 = ORIENTED_EDGE ( 'NONE', *, *, #545, .F. ) ;
#551 = DIRECTION ( 'NONE',  ( -0.000000000000000000, -0.000000000000000000, -1.000000000000000000 ) ) ;
#552 = ADVANCED_FACE ( 'NONE', ( #750 ), #33, .F. ) ;
#553 = ORIENTED_EDGE ( 'NONE', *, *, #1114, .T. ) ;
#554 = CARTESIAN_POINT ( 'NONE',  ( 0.01499999999999999424, 5.335640612625515639E-18, 0.08999999999999999667 ) ) ;
#555 = VERTEX_POINT ( 'NONE', #221 ) ;
#556 = EDGE_CURVE ( 'NONE', #764, #1118, #40, .T. ) ;
#557 = LINE ( 'NONE', #20, #892 ) ;
#558 = DIRECTION ( 'NONE',  ( -0.000000000000000000, -0.000000000000000000, -1.000000000000000000 ) ) ;
#559 = ORIENTED_EDGE ( 'NONE', *, *, #388, .F. ) ;
#560 = CARTESIAN_POINT ( 'NONE',  ( -0.01499999999999999424, 5.335640612625515639E-18, 0.08999999999999999667 ) ) ;
#561 = ADVANCED_FACE ( 'NONE', ( #398 ), #130, .T. ) ;
#562 = VERTEX_POINT ( 'NONE', #837 ) ;
#563 = CARTESIAN_POINT ( 'NONE',  ( 0.1399999999999999856, 0.006999999999999985401, -0.08499999999999999223 ) ) ;
#564 = PLANE ( 'NONE',  #424 ) ;
#565 = AXIS2_PLACEMENT_3D ( 'NONE', #1051, #618, #521 ) ;
#566 = VERTEX_POINT ( 'NONE', #825 ) ;
#567 = ORIENTED_EDGE ( 'NONE', *, *, #744, .F. ) ;
#568 = DIRECTION ( 'NONE',  ( -0.000000000000000000, -0.000000000000000000, -1.000000000000000000 ) ) ;
#569 = DIRECTION ( 'NONE',  ( -0.000000000000000000, 1.000000000000000000, -0.000000000000000000 ) ) ;
#570 = AXIS2_PLACEMENT_3D ( 'NONE', #277, #630, #190 ) ;
#571 = ORIENTED_EDGE ( 'NONE', *, *, #969, .T. ) ;
#572 = VECTOR ( 'NONE', #939, 39.37007874015748143 ) ;
#573 = ORIENTED_EDGE ( 'NONE', *, *, #660, .F. ) ;
#574 = LINE ( 'NONE', #1097, #629 ) ;
#575 = VECTOR ( 'NONE', #250, 39.37007874015748143 ) ;
#576 = EDGE_LOOP ( 'NONE', ( #387, #620, #421, #1125 ) ) ;
#577 =( GEOMETRIC_REPRESENTATION_CONTEXT ( 3 ) GLOBAL_UNCERTAINTY_ASSIGNED_CONTEXT ( ( #856 ) ) GLOBAL_UNIT_ASSIGNED_CONTEXT ( ( #1061, #5, #877 ) ) REPRESENTATION_CONTEXT ( 'NONE', 'WORKASPACE' ) );
#578 = ORIENTED_EDGE ( 'NONE', *, *, #1091, .T. ) ;
#579 = LINE ( 'NONE', #299, #771 ) ;
#580 = VERTEX_POINT ( 'NONE', #402 ) ;
#581 = CIRCLE ( 'NONE', #231, 0.001000000000000003057 ) ;
#582 = DIRECTION ( 'NONE',  ( 1.000000000000000000, 0.000000000000000000, 0.000000000000000000 ) ) ;
#583 = AXIS2_PLACEMENT_3D ( 'NONE', #420, #328, #869 ) ;
#584 = ORIENTED_EDGE ( 'NONE', *, *, #867, .T. ) ;
#585 = ADVANCED_FACE ( 'NONE', ( #656 ), #55, .F. ) ;
#586 = CLOSED_SHELL ( 'NONE', ( #589, #730, #266, #585, #18, #298, #844, #752, #914, #985, #426, #390, #546, #232 ) ) ;
#587 = LINE ( 'NONE', #215, #162 ) ;
#588 = ORIENTED_EDGE ( 'NONE', *, *, #230, .F. ) ;
#589 = ADVANCED_FACE ( 'NONE', ( #1090 ), #406, .T. ) ;
#590 = CARTESIAN_POINT ( 'NONE',  ( -0.01499999999999999424, 0.006000000000000000125, 0.08999999999999999667 ) ) ;
#591 = CARTESIAN_POINT ( 'NONE',  ( -0.1329999999999999793, 0.06899999999999999190, 0.08999999999999999667 ) ) ;
#592 = DIMENSIONAL_EXPONENTS ( 1.000000000000000000, 0.000000000000000000, 0.000000000000000000, 0.000000000000000000, 0.000000000000000000, 0.000000000000000000, 0.000000000000000000 ) ;
#593 = DIRECTION ( 'NONE',  ( 1.000000000000000000, 5.420333320762426035E-16, -0.000000000000000000 ) ) ;
#594 = ORIENTED_EDGE ( 'NONE', *, *, #427, .F. ) ;
#595 = FACE_OUTER_BOUND ( 'NONE', #202, .T. ) ;
#596 = ORIENTED_EDGE ( 'NONE', *, *, #908, .T. ) ;
#597 = LINE ( 'NONE', #945, #223 ) ;
#598 = UNCERTAINTY_MEASURE_WITH_UNIT (LENGTH_MEASURE( 1.000000000000000082E-05 ), #617, 'distance_accuracy_value', 'NONE');
#599 = DIRECTION ( 'NONE',  ( -0.000000000000000000, -1.000000000000000000, -0.000000000000000000 ) ) ;
#600 = AXIS2_PLACEMENT_3D ( 'NONE', #13, #1085, #203 ) ;
#601 = DIRECTION ( 'NONE',  ( -5.420333320762426035E-16, 1.000000000000000000, 0.000000000000000000 ) ) ;
#602 = ORIENTED_EDGE ( 'NONE', *, *, #522, .F. ) ;
#603 = AXIS2_PLACEMENT_3D ( 'NONE', #715, #268, #531 ) ;
#604 = LINE ( 'NONE', #1030, #1126 ) ;
#605 = CARTESIAN_POINT ( 'NONE',  ( -0.01499999999999999424, 5.335640612625515639E-18, -0.08999999999999999667 ) ) ;
#606 = CARTESIAN_POINT ( 'NONE',  ( -0.1329999999999999793, 0.006999999999999985401, -0.08499999999999999223 ) ) ;
#607 = LINE ( 'NONE', #257, #882 ) ;
#608 = VERTEX_POINT ( 'NONE', #755 ) ;
#609 = CYLINDRICAL_SURFACE ( 'NONE', #884, 0.001000000000000003057 ) ;
#610 = LINE ( 'NONE', #700, #743 ) ;
#611 = EDGE_CURVE ( 'NONE', #990, #37, #1108, .T. ) ;
#612 = DIRECTION ( 'NONE',  ( 0.000000000000000000, 1.000000000000000000, 0.000000000000000000 ) ) ;
#613 = CARTESIAN_POINT ( 'NONE',  ( -0.1329999999999999793, 0.006999999999999985401, -0.08499999999999999223 ) ) ;
#614 = ORIENTED_EDGE ( 'NONE', *, *, #1123, .T. ) ;
#615 = DIRECTION ( 'NONE',  ( 0.000000000000000000, -0.000000000000000000, -1.000000000000000000 ) ) ;
#616 = DIRECTION ( 'NONE',  ( -0.000000000000000000, -0.000000000000000000, -1.000000000000000000 ) ) ;
#617 =( CONVERSION_BASED_UNIT ( 'INCH', #638 ) LENGTH_UNIT ( ) NAMED_UNIT ( #496 ) );
#618 = DIRECTION ( 'NONE',  ( 0.000000000000000000, 0.000000000000000000, 1.000000000000000000 ) ) ;
#619 = VECTOR ( 'NONE', #317, 39.37007874015748143 ) ;
#620 = ORIENTED_EDGE ( 'NONE', *, *, #320, .F. ) ;
#621 = DIRECTION ( 'NONE',  ( 1.000000000000000000, 0.000000000000000000, 0.000000000000000000 ) ) ;
#622 = FACE_OUTER_BOUND ( 'NONE', #1103, .T. ) ;
#623 =( NAMED_UNIT ( * ) PLANE_ANGLE_UNIT ( ) SI_UNIT ( $, .RADIAN. ) );
#624 = COLOUR_RGB ( '',0.7960784313725489669, 0.8235294117647058432, 0.9372549019607843146 ) ;
#625 = LENGTH_MEASURE_WITH_UNIT ( LENGTH_MEASURE( 0.02539999999999999897 ), #450 );
#626 = ORIENTED_EDGE ( 'NONE', *, *, #51, .F. ) ;
#627 = CARTESIAN_POINT ( 'NONE',  ( 0.1399999999999999856, 0.006999999999999985401, 0.08999999999999999667 ) ) ;
#628 = EDGE_CURVE ( 'NONE', #562, #768, #587, .T. ) ;
#629 = VECTOR ( 'NONE', #310, 39.37007874015748143 ) ;
#630 = DIRECTION ( 'NONE',  ( 1.000000000000000000, 0.000000000000000000, 0.000000000000000000 ) ) ;
#631 = FACE_OUTER_BOUND ( 'NONE', #1025, .T. ) ;
#632 = VECTOR ( 'NONE', #1063, 39.37007874015748143 ) ;
#633 = DIRECTION ( 'NONE',  ( -1.000000000000000000, 0.000000000000000000, 0.000000000000000000 ) ) ;
#634 = ADVANCED_FACE ( 'NONE', ( #259 ), #443, .F. ) ;
#635 = CARTESIAN_POINT ( 'NONE',  ( 0.1329999999999999793, 0.006999999999999985401, -0.08499999999999999223 ) ) ;
#636 = AXIS2_PLACEMENT_3D ( 'NONE', #962, #683, #341 ) ;
#637 = CARTESIAN_POINT ( 'NONE',  ( -0.1399999999999999856, 0.006999999999999985401, -0.08499999999999999223 ) ) ;
#638 = LENGTH_MEASURE_WITH_UNIT ( LENGTH_MEASURE( 0.02539999999999999897 ), #286 );
#639 = ORIENTED_EDGE ( 'NONE', *, *, #1076, .F. ) ;
#640 = DIRECTION ( 'NONE',  ( -0.000000000000000000, -0.000000000000000000, -1.000000000000000000 ) ) ;
#641 = VERTEX_POINT ( 'NONE', #853 ) ;
#642 = DIRECTION ( 'NONE',  ( 0.000000000000000000, 0.000000000000000000, -1.000000000000000000 ) ) ;
#643 = EDGE_LOOP ( 'NONE', ( #1010, #380, #994, #322, #823, #1012 ) ) ;
#644 = EDGE_CURVE ( 'NONE', #115, #338, #1148, .T. ) ;
#645 = VECTOR ( 'NONE', #1027, 39.37007874015748143 ) ;
#646 = DIRECTION ( 'NONE',  ( -0.000000000000000000, 0.000000000000000000, 1.000000000000000000 ) ) ;
#647 = ORIENTED_EDGE ( 'NONE', *, *, #320, .T. ) ;
#648 = CARTESIAN_POINT ( 'NONE',  ( 0.01499999999999999424, 5.335640612625515639E-18, -0.3648035662068453977 ) ) ;
#649 = ORIENTED_EDGE ( 'NONE', *, *, #466, .F. ) ;
#650 = CARTESIAN_POINT ( 'NONE',  ( 0.1329999999999999793, -1.492127187657557686E-17, 0.08999999999999999667 ) ) ;
#651 = AXIS2_PLACEMENT_3D ( 'NONE', #613, #956, #851 ) ;
#652 = CARTESIAN_POINT ( 'NONE',  ( 0.01499999999999999424, 0.006000000000000000125, 0.08999999999999999667 ) ) ;
#653 = LINE ( 'NONE', #917, #72 ) ;
#654 = ORIENTED_EDGE ( 'NONE', *, *, #712, .F. ) ;
#655 = CARTESIAN_POINT ( 'NONE',  ( 0.1329999999999999793, 0.006999999999999985401, 0.08999999999999999667 ) ) ;
#656 = FACE_OUTER_BOUND ( 'NONE', #1086, .T. ) ;
#657 = ORIENTED_EDGE ( 'NONE', *, *, #105, .F. ) ;
#658 = ORIENTED_EDGE ( 'NONE', *, *, #1123, .F. ) ;
#659 = DIRECTION ( 'NONE',  ( -1.000000000000000000, 0.000000000000000000, 0.000000000000000000 ) ) ;
#660 = EDGE_CURVE ( 'NONE', #703, #738, #789, .T. ) ;
#661 = ORIENTED_EDGE ( 'NONE', *, *, #9, .T. ) ;
#662 = EDGE_CURVE ( 'NONE', #137, #198, #1011, .T. ) ;
#663 = ORIENTED_EDGE ( 'NONE', *, *, #713, .T. ) ;
#664 = DIRECTION ( 'NONE',  ( 0.000000000000000000, 0.000000000000000000, 1.000000000000000000 ) ) ;
#665 = CIRCLE ( 'NONE', #924, 0.001000000000000003057 ) ;
#666 = DIRECTION ( 'NONE',  ( 0.000000000000000000, 1.000000000000000000, 0.000000000000000000 ) ) ;
#667 = CARTESIAN_POINT ( 'NONE',  ( 0.01499999999999999424, 5.335640612625515639E-18, 0.08999999999999999667 ) ) ;
#668 = DIMENSIONAL_EXPONENTS ( 1.000000000000000000, 0.000000000000000000, 0.000000000000000000, 0.000000000000000000, 0.000000000000000000, 0.000000000000000000, 0.000000000000000000 ) ;
#669 = EDGE_CURVE ( 'NONE', #357, #1038, #604, .T. ) ;
#670 = ADVANCED_FACE ( 'NONE', ( #76 ), #82, .T. ) ;
#671 = EDGE_LOOP ( 'NONE', ( #1015, #727, #399, #584, #242, #484 ) ) ;
#672 = DIRECTION ( 'NONE',  ( 0.000000000000000000, 1.000000000000000000, 0.000000000000000000 ) ) ;
#673 = STYLED_ITEM ( 'NONE', ( #276 ), #982 ) ;
#674 = EDGE_LOOP ( 'NONE', ( #970, #742, #462, #842, #978, #403, #859, #335 ) ) ;
#675 = VECTOR ( 'NONE', #601, 39.37007874015748143 ) ;
#676 = LINE ( 'NONE', #57, #433 ) ;
#677 = CARTESIAN_POINT ( 'NONE',  ( 0.01499999999999999424, 0.006000000000000000125, -0.08999999999999999667 ) ) ;
#678 = EDGE_LOOP ( 'NONE', ( #442, #776, #435, #550 ) ) ;
#679 = CARTESIAN_POINT ( 'NONE',  ( 0.01499999999999999424, 5.335640612625515639E-18, 0.08999999999999999667 ) ) ;
#680 = ORIENTED_EDGE ( 'NONE', *, *, #947, .T. ) ;
#681 = CARTESIAN_POINT ( 'NONE',  ( 0.1329999999999999793, 0.006999999999999985401, -0.08499999999999999223 ) ) ;
#682 = FACE_OUTER_BOUND ( 'NONE', #210, .T. ) ;
#683 = DIRECTION ( 'NONE',  ( -0.000000000000000000, 0.000000000000000000, -1.000000000000000000 ) ) ;
#684 = VECTOR ( 'NONE', #449, 39.37007874015748143 ) ;
#685 = ORIENTED_EDGE ( 'NONE', *, *, #830, .F. ) ;
#686 = DIRECTION ( 'NONE',  ( -0.000000000000000000, 1.000000000000000000, -0.000000000000000000 ) ) ;
#687 = EDGE_LOOP ( 'NONE', ( #596, #313, #1001, #377, #692, #41 ) ) ;
#688 = CARTESIAN_POINT ( 'NONE',  ( -0.1329999999999999793, 0.005999999999999984512, -0.08499999999999999223 ) ) ;
#689 = SURFACE_SIDE_STYLE ('',( #114 ) ) ;
#690 = VECTOR ( 'NONE', #201, 39.37007874015748143 ) ;
#691 = CARTESIAN_POINT ( 'NONE',  ( -0.1329999999999999793, 0.006999999999999985401, 0.08499999999999999223 ) ) ;
#692 = ORIENTED_EDGE ( 'NONE', *, *, #709, .F. ) ;
#693 = DIRECTION ( 'NONE',  ( -1.000000000000000000, 0.000000000000000000, 0.000000000000000000 ) ) ;
#694 = LINE ( 'NONE', #959, #1138 ) ;
#695 = DIRECTION ( 'NONE',  ( -0.000000000000000000, -0.000000000000000000, -1.000000000000000000 ) ) ;
#696 = PLANE ( 'NONE',  #565 ) ;
#697 = LINE ( 'NONE', #214, #740 ) ;
#698 = VERTEX_POINT ( 'NONE', #860 ) ;
#699 = PLANE ( 'NONE',  #1121 ) ;
#700 = CARTESIAN_POINT ( 'NONE',  ( 0.1329999999999999793, 0.005999999999999984512, 0.08999999999999999667 ) ) ;
#701 = SHAPE_DEFINITION_REPRESENTATION ( #1096, #982 ) ;
#702 = LINE ( 'NONE', #787, #974 ) ;
#703 = VERTEX_POINT ( 'NONE', #950 ) ;
#704 = DIRECTION ( 'NONE',  ( -1.000000000000000000, -1.266084213165376451E-16, 0.000000000000000000 ) ) ;
#705 = FACE_OUTER_BOUND ( 'NONE', #1007, .T. ) ;
#706 = CARTESIAN_POINT ( 'NONE',  ( -0.01499999999999999424, 0.006000000000000000125, -0.3648035662068453977 ) ) ;
#707 = EDGE_CURVE ( 'NONE', #738, #1118, #436, .T. ) ;
#708 = VERTEX_POINT ( 'NONE', #511 ) ;
#709 = EDGE_CURVE ( 'NONE', #768, #122, #876, .T. ) ;
#710 = CARTESIAN_POINT ( 'NONE',  ( 0.01499999999999999424, 0.006000000000000000125, -0.08999999999999999667 ) ) ;
#711 =( NAMED_UNIT ( * ) SI_UNIT ( $, .STERADIAN. ) SOLID_ANGLE_UNIT ( ) );
#712 = EDGE_CURVE ( 'NONE', #906, #1080, #971, .T. ) ;
#713 = EDGE_CURVE ( 'NONE', #810, #1088, #327, .T. ) ;
#714 = CARTESIAN_POINT ( 'NONE',  ( 0.01499999999999999424, 5.335640612625515639E-18, -0.08999999999999999667 ) ) ;
#715 = CARTESIAN_POINT ( 'NONE',  ( 0.01499999999999999424, 5.335640612625515639E-18, -0.3648035662068453977 ) ) ;
#716 = VECTOR ( 'NONE', #847, 39.37007874015748143 ) ;
#717 = CARTESIAN_POINT ( 'NONE',  ( 0.1329999999999999793, 0.006999999999999985401, 0.08999999999999999667 ) ) ;
#718 = FACE_OUTER_BOUND ( 'NONE', #11, .T. ) ;
#719 = AXIS2_PLACEMENT_3D ( 'NONE', #499, #423, #340 ) ;
#720 =( NAMED_UNIT ( * ) SI_UNIT ( $, .STERADIAN. ) SOLID_ANGLE_UNIT ( ) );
#721 = DIRECTION ( 'NONE',  ( 0.000000000000000000, -0.000000000000000000, -1.000000000000000000 ) ) ;
#722 = ORIENTED_EDGE ( 'NONE', *, *, #217, .T. ) ;
#723 = VECTOR ( 'NONE', #849, 39.37007874015748143 ) ;
#724 = DIRECTION ( 'NONE',  ( -1.000000000000000000, 0.000000000000000000, 0.000000000000000000 ) ) ;
#725 = EDGE_CURVE ( 'NONE', #580, #1038, #819, .T. ) ;
#726 = CARTESIAN_POINT ( 'NONE',  ( -0.1329999999999999793, 0.005999999999999984512, 0.08999999999999999667 ) ) ;
#727 = ORIENTED_EDGE ( 'NONE', *, *, #224, .F. ) ;
#728 = ADVANCED_FACE ( 'NONE', ( #595 ), #254, .T. ) ;
#729 = STYLED_ITEM ( 'NONE', ( #272 ), #404 ) ;
#730 = ADVANCED_FACE ( 'NONE', ( #174 ), #609, .F. ) ;
#731 = DIRECTION ( 'NONE',  ( -0.000000000000000000, -0.000000000000000000, -1.000000000000000000 ) ) ;
#732 = EDGE_LOOP ( 'NONE', ( #639, #133, #1132, #654 ) ) ;
#733 = LINE ( 'NONE', #1000, #923 ) ;
#734 = CARTESIAN_POINT ( 'NONE',  ( -0.01499999999999999424, 0.006000000000000000125, -0.08999999999999999667 ) ) ;
#735 = DIRECTION ( 'NONE',  ( 0.000000000000000000, 0.000000000000000000, 1.000000000000000000 ) ) ;
#736 = ORIENTED_EDGE ( 'NONE', *, *, #16, .T. ) ;
#737 = CARTESIAN_POINT ( 'NONE',  ( 0.1329999999999999793, 0.01399999999999998641, -0.08499999999999999223 ) ) ;
#738 = VERTEX_POINT ( 'NONE', #885 ) ;
#739 = CARTESIAN_POINT ( 'NONE',  ( -0.1339999999999999802, 0.006999999999999985401, 0.08999999999999999667 ) ) ;
#740 = VECTOR ( 'NONE', #845, 39.37007874015748143 ) ;
#741 = CARTESIAN_POINT ( 'NONE',  ( 0.1329999999999999793, -1.492127187657557686E-17, 0.08999999999999999667 ) ) ;
#742 = ORIENTED_EDGE ( 'NONE', *, *, #794, .F. ) ;
#743 = VECTOR ( 'NONE', #448, 39.37007874015748143 ) ;
#744 = EDGE_CURVE ( 'NONE', #60, #122, #1142, .T. ) ;
#745 = EDGE_LOOP ( 'NONE', ( #1082, #131, #245, #118 ) ) ;
#746 = ADVANCED_FACE ( 'NONE', ( #352 ), #699, .T. ) ;
#747 = CARTESIAN_POINT ( 'NONE',  ( -0.1329999999999999793, 0.005999999999999984512, -0.08499999999999999223 ) ) ;
#748 = ORIENTED_EDGE ( 'NONE', *, *, #794, .T. ) ;
#749 = ORIENTED_EDGE ( 'NONE', *, *, #211, .F. ) ;
#750 = FACE_OUTER_BOUND ( 'NONE', #576, .T. ) ;
#751 = LINE ( 'NONE', #316, #194 ) ;
#752 = ADVANCED_FACE ( 'NONE', ( #503 ), #1127, .F. ) ;
#753 = ORIENTED_EDGE ( 'NONE', *, *, #712, .T. ) ;
#754 = EDGE_CURVE ( 'NONE', #1062, #470, #50, .T. ) ;
#755 = CARTESIAN_POINT ( 'NONE',  ( 0.1399999999999999856, 0.006999999999999985401, 0.08499999999999999223 ) ) ;
#756 = AXIS2_PLACEMENT_3D ( 'NONE', #606, #323, #758 ) ;
#757 = VERTEX_POINT ( 'NONE', #737 ) ;
#758 = DIRECTION ( 'NONE',  ( 1.000000000000000000, 0.000000000000000000, 0.000000000000000000 ) ) ;
#759 = DIRECTION ( 'NONE',  ( 0.000000000000000000, 1.000000000000000000, 0.000000000000000000 ) ) ;
#760 = FACE_OUTER_BOUND ( 'NONE', #311, .T. ) ;
#761 = ORIENTED_EDGE ( 'NONE', *, *, #1091, .F. ) ;
#762 = CARTESIAN_POINT ( 'NONE',  ( -0.01499999999999999424, 0.006000000000000000125, 0.08999999999999999667 ) ) ;
#763 = PRESENTATION_LAYER_ASSIGNMENT (  '', '', ( #673 ) ) ;
#764 = VERTEX_POINT ( 'NONE', #29 ) ;
#765 = FACE_OUTER_BOUND ( 'NONE', #47, .T. ) ;
#766 = PLANE ( 'NONE',  #487 ) ;
#767 = CARTESIAN_POINT ( 'NONE',  ( 0.1329999999999999793, -1.493979371535143794E-17, 0.08499999999999999223 ) ) ;
#768 = VERTEX_POINT ( 'NONE', #409 ) ;
#769 = DIRECTION ( 'NONE',  ( 1.000000000000000000, 1.266084213165376205E-16, 0.000000000000000000 ) ) ;
#770 = VERTEX_POINT ( 'NONE', #909 ) ;
#771 = VECTOR ( 'NONE', #936, 39.37007874015748143 ) ;
#772 = LINE ( 'NONE', #339, #1017 ) ;
#773 = PRESENTATION_STYLE_ASSIGNMENT (( #514 ) ) ;
#774 = LINE ( 'NONE', #239, #675 ) ;
#775 = VECTOR ( 'NONE', #900, 39.37007874015748143 ) ;
#776 = ORIENTED_EDGE ( 'NONE', *, *, #928, .T. ) ;
#777 = CARTESIAN_POINT ( 'NONE',  ( -0.1329999999999999793, 0.006999999999999985401, 0.08499999999999999223 ) ) ;
#778 = VECTOR ( 'NONE', #695, 39.37007874015748143 ) ;
#779 = DIRECTION ( 'NONE',  ( 0.000000000000000000, -0.000000000000000000, -1.000000000000000000 ) ) ;
#780 = FACE_OUTER_BOUND ( 'NONE', #852, .T. ) ;
#781 = DIRECTION ( 'NONE',  ( -1.000000000000000000, 0.000000000000000000, 0.000000000000000000 ) ) ;
#782 = ORIENTED_EDGE ( 'NONE', *, *, #916, .T. ) ;
#783 = AXIS2_PLACEMENT_3D ( 'NONE', #512, #255, #70 ) ;
#784 = DIRECTION ( 'NONE',  ( -0.000000000000000000, -0.000000000000000000, -1.000000000000000000 ) ) ;
#785 = FACE_OUTER_BOUND ( 'NONE', #678, .T. ) ;
#786 = PRODUCT_CONTEXT ( 'NONE', #1133, 'mechanical' ) ;
#787 = CARTESIAN_POINT ( 'NONE',  ( -0.1329999999999999793, 0.06899999999999999190, 0.08999999999999999667 ) ) ;
#788 = ORIENTED_EDGE ( 'NONE', *, *, #186, .T. ) ;
#789 = LINE ( 'NONE', #1039, #369 ) ;
#790 = CARTESIAN_POINT ( 'NONE',  ( 0.01500000000000001506, 0.006000000000000002727, -0.08999999999999999667 ) ) ;
#791 = FILL_AREA_STYLE_COLOUR ( '', #1113 ) ;
#792 = FILL_AREA_STYLE_COLOUR ( '', #624 ) ;
#793 = ADVANCED_FACE ( 'NONE', ( #1087 ), #766, .T. ) ;
#794 = EDGE_CURVE ( 'NONE', #1115, #342, #857, .T. ) ;
#795 = ORIENTED_EDGE ( 'NONE', *, *, #996, .F. ) ;
#796 = FACE_OUTER_BOUND ( 'NONE', #525, .T. ) ;
#797 = LINE ( 'NONE', #1135, #249 ) ;
#798 = DIRECTION ( 'NONE',  ( 1.000000000000000000, 0.000000000000000000, -0.000000000000000000 ) ) ;
#799 = MANIFOLD_SOLID_BREP ( 'Mirror1', #586 ) ;
#800 =( CONVERSION_BASED_UNIT ( 'INCH', #625 ) LENGTH_UNIT ( ) NAMED_UNIT ( #668 ) );
#801 = FILL_AREA_STYLE ('',( #972 ) ) ;
#802 = CARTESIAN_POINT ( 'NONE',  ( 0.01499999999999999424, 0.006000000000000000125, -0.08999999999999999667 ) ) ;
#803 = CARTESIAN_POINT ( 'NONE',  ( 0.1329999999999999793, 0.006999999999999985401, 0.08499999999999999223 ) ) ;
#804 = ORIENTED_EDGE ( 'NONE', *, *, #25, .F. ) ;
#805 = ADVANCED_FACE ( 'NONE', ( #820 ), #1092, .T. ) ;
#806 = AXIS2_PLACEMENT_3D ( 'NONE', #652, #833, #841 ) ;
#807 = CARTESIAN_POINT ( 'NONE',  ( -0.01499999999999999424, 5.335640612625515639E-18, 0.08999999999999999667 ) ) ;
#808 = DIRECTION ( 'NONE',  ( 0.000000000000000000, 0.000000000000000000, 1.000000000000000000 ) ) ;
#809 = FACE_OUTER_BOUND ( 'NONE', #937, .T. ) ;
#810 = VERTEX_POINT ( 'NONE', #238 ) ;
#811 = AXIS2_PLACEMENT_3D ( 'NONE', #422, #961, #138 ) ;
#812 = DIRECTION ( 'NONE',  ( 1.000000000000000000, 0.000000000000000000, 0.000000000000000000 ) ) ;
#813 = LINE ( 'NONE', #287, #312 ) ;
#814 = ORIENTED_EDGE ( 'NONE', *, *, #386, .T. ) ;
#815 = ORIENTED_EDGE ( 'NONE', *, *, #669, .F. ) ;
#816 = DIRECTION ( 'NONE',  ( -1.000000000000000000, 1.716687499084838669E-16, 0.000000000000000000 ) ) ;
#817 = DIRECTION ( 'NONE',  ( -0.000000000000000000, 0.000000000000000000, -1.000000000000000000 ) ) ;
#818 = ORIENTED_EDGE ( 'NONE', *, *, #955, .T. ) ;
#819 = CIRCLE ( 'NONE', #532, 0.001000000000000003057 ) ;
#820 = FACE_OUTER_BOUND ( 'NONE', #1128, .T. ) ;
#821 = EDGE_CURVE ( 'NONE', #999, #836, #733, .T. ) ;
#822 = PRODUCT_DEFINITION_CONTEXT ( 'detailed design', #39, 'design' ) ;
#823 = ORIENTED_EDGE ( 'NONE', *, *, #264, .F. ) ;
#824 = DIRECTION ( 'NONE',  ( 0.000000000000000000, -0.000000000000000000, -1.000000000000000000 ) ) ;
#825 = CARTESIAN_POINT ( 'NONE',  ( -0.01499999999999998904, 5.335640612625515639E-18, -0.08999999999999999667 ) ) ;
#826 = ORIENTED_EDGE ( 'NONE', *, *, #828, .F. ) ;
#827 = AXIS2_PLACEMENT_3D ( 'NONE', #111, #640, #724 ) ;
#828 = EDGE_CURVE ( 'NONE', #1115, #273, #653, .T. ) ;
#829 = CARTESIAN_POINT ( 'NONE',  ( 0.01499999999999999424, 5.335640612625515639E-18, -0.08999999999999999667 ) ) ;
#830 = EDGE_CURVE ( 'NONE', #273, #999, #65, .T. ) ;
#831 = ORIENTED_EDGE ( 'NONE', *, *, #126, .F. ) ;
#832 = AXIS2_PLACEMENT_3D ( 'NONE', #109, #646, #26 ) ;
#833 = DIRECTION ( 'NONE',  ( 1.000000000000000000, 0.000000000000000000, -0.000000000000000000 ) ) ;
#834 = ORIENTED_EDGE ( 'NONE', *, *, #217, .F. ) ;
#835 = PRESENTATION_LAYER_ASSIGNMENT (  '', '', ( #38 ) ) ;
#836 = VERTEX_POINT ( 'NONE', #560 ) ;
#837 = CARTESIAN_POINT ( 'NONE',  ( -0.01499999999999999424, 5.335640612625515639E-18, 0.08999999999999999667 ) ) ;
#838 = VERTEX_POINT ( 'NONE', #591 ) ;
#839 = EDGE_CURVE ( 'NONE', #555, #541, #302, .T. ) ;
#840 = VERTEX_POINT ( 'NONE', #145 ) ;
#841 = DIRECTION ( 'NONE',  ( 0.000000000000000000, 0.000000000000000000, 1.000000000000000000 ) ) ;
#842 = ORIENTED_EDGE ( 'NONE', *, *, #360, .F. ) ;
#843 = LINE ( 'NONE', #491, #374 ) ;
#844 = ADVANCED_FACE ( 'NONE', ( #682 ), #154, .F. ) ;
#845 = DIRECTION ( 'NONE',  ( 0.000000000000000000, 1.000000000000000000, 0.000000000000000000 ) ) ;
#846 = EDGE_LOOP ( 'NONE', ( #1101, #401, #22, #361 ) ) ;
#847 = DIRECTION ( 'NONE',  ( -0.000000000000000000, -0.000000000000000000, -1.000000000000000000 ) ) ;
#848 = VERTEX_POINT ( 'NONE', #262 ) ;
#849 = DIRECTION ( 'NONE',  ( 1.000000000000000000, 1.266084213165376205E-16, 0.000000000000000000 ) ) ;
#850 = FILL_AREA_STYLE ('',( #58 ) ) ;
#851 = DIRECTION ( 'NONE',  ( 1.000000000000000000, 0.000000000000000000, 0.000000000000000000 ) ) ;
#852 = EDGE_LOOP ( 'NONE', ( #104, #1077, #868, #663, #56, #529 ) ) ;
#853 = CARTESIAN_POINT ( 'NONE',  ( -0.01499999999999999424, 0.006000000000000000125, -0.08999999999999999667 ) ) ;
#854 = VERTEX_POINT ( 'NONE', #171 ) ;
#855 = CARTESIAN_POINT ( 'NONE',  ( 0.1329999999999999793, 0.007999999999999986289, 0.08499999999999999223 ) ) ;
#856 = UNCERTAINTY_MEASURE_WITH_UNIT (LENGTH_MEASURE( 1.000000000000000082E-05 ), #1061, 'distance_accuracy_value', 'NONE');
#857 = LINE ( 'NONE', #1035, #645 ) ;
#858 = DIRECTION ( 'NONE',  ( -0.000000000000000000, -0.000000000000000000, 1.000000000000000000 ) ) ;
#859 = ORIENTED_EDGE ( 'NONE', *, *, #271, .F. ) ;
#860 = CARTESIAN_POINT ( 'NONE',  ( 0.1329999999999999793, 0.005999999999999984512, -0.08999999999999999667 ) ) ;
#861 = CARTESIAN_POINT ( 'NONE',  ( -0.1329999999999999793, 0.006999999999999985401, 0.08999999999999999667 ) ) ;
#862 = AXIS2_PLACEMENT_3D ( 'NONE', #1019, #46, #227 ) ;
#863 = CARTESIAN_POINT ( 'NONE',  ( 0.1329999999999999793, 0.006999999999999985401, 0.08499999999999999223 ) ) ;
#864 = CARTESIAN_POINT ( 'NONE',  ( 0.1329999999999999793, 0.007999999999999986289, 0.08999999999999999667 ) ) ;
#865 = ADVANCED_FACE ( 'NONE', ( #872 ), #881, .T. ) ;
#866 = CIRCLE ( 'NONE', #1130, 0.007000000000000003615 ) ;
#867 = EDGE_CURVE ( 'NONE', #60, #703, #452, .T. ) ;
#868 = ORIENTED_EDGE ( 'NONE', *, *, #347, .T. ) ;
#869 = DIRECTION ( 'NONE',  ( 1.000000000000000000, 0.000000000000000000, 0.000000000000000000 ) ) ;
#870 = VECTOR ( 'NONE', #938, 39.37007874015748143 ) ;
#871 = DIRECTION ( 'NONE',  ( 0.000000000000000000, 0.000000000000000000, 1.000000000000000000 ) ) ;
#872 = FACE_OUTER_BOUND ( 'NONE', #309, .T. ) ;
#873 = CARTESIAN_POINT ( 'NONE',  ( 0.1329999999999999793, 0.005999999999999984512, 0.08499999999999999223 ) ) ;
#874 = AXIS2_PLACEMENT_3D ( 'NONE', #178, #103, #192 ) ;
#875 = ORIENTED_EDGE ( 'NONE', *, *, #744, .T. ) ;
#876 = LINE ( 'NONE', #762, #1084 ) ;
#877 =( NAMED_UNIT ( * ) SI_UNIT ( $, .STERADIAN. ) SOLID_ANGLE_UNIT ( ) );
#878 = ADVANCED_FACE ( 'NONE', ( #182 ), #366, .T. ) ;
#879 = CARTESIAN_POINT ( 'NONE',  ( 0.000000000000000000, 0.000000000000000000, 0.08999999999999999667 ) ) ;
#880 = DIRECTION ( 'NONE',  ( 1.000000000000000000, 0.000000000000000000, 0.000000000000000000 ) ) ;
#881 = PLANE ( 'NONE',  #478 ) ;
#882 = VECTOR ( 'NONE', #139, 39.37007874015748143 ) ;
#883 = EDGE_LOOP ( 'NONE', ( #1150, #901, #446, #831 ) ) ;
#884 = AXIS2_PLACEMENT_3D ( 'NONE', #530, #942, #1054 ) ;
#885 = CARTESIAN_POINT ( 'NONE',  ( -0.1329999999999999793, -1.493979371535143794E-17, -0.08499999999999999223 ) ) ;
#886 = LINE ( 'NONE', #627, #438 ) ;
#887 = EDGE_CURVE ( 'NONE', #770, #925, #547, .T. ) ;
#888 = SURFACE_SIDE_STYLE ('',( #533 ) ) ;
#889 = SURFACE_STYLE_USAGE ( .BOTH. , #1149 ) ;
#890 = SURFACE_STYLE_FILL_AREA ( #1075 ) ;
#891 = SURFACE_STYLE_USAGE ( .BOTH. , #888 ) ;
#892 = VECTOR ( 'NONE', #808, 39.37007874015748143 ) ;
#893 = VECTOR ( 'NONE', #549, 39.37007874015748143 ) ;
#894 = PLANE ( 'NONE',  #570 ) ;
#895 = CARTESIAN_POINT ( 'NONE',  ( -0.01499999999999999424, 0.006000000000000000125, 0.08999999999999999667 ) ) ;
#896 = DIRECTION ( 'NONE',  ( -1.000000000000000000, -1.266084213165376451E-16, 0.000000000000000000 ) ) ;
#897 = DIRECTION ( 'NONE',  ( 0.000000000000000000, 0.000000000000000000, 1.000000000000000000 ) ) ;
#898 = LINE ( 'NONE', #461, #537 ) ;
#899 = ORIENTED_EDGE ( 'NONE', *, *, #1056, .F. ) ;
#900 = DIRECTION ( 'NONE',  ( 1.000000000000000000, 1.716687499084838669E-16, -0.000000000000000000 ) ) ;
#901 = ORIENTED_EDGE ( 'NONE', *, *, #611, .T. ) ;
#902 = LINE ( 'NONE', #734, #690 ) ;
#903 = EDGE_LOOP ( 'NONE', ( #375, #304, #1141, #141 ) ) ;
#904 = FACE_OUTER_BOUND ( 'NONE', #113, .T. ) ;
#905 = CARTESIAN_POINT ( 'NONE',  ( -0.1329999999999999793, 0.006999999999999985401, 0.08999999999999999667 ) ) ;
#906 = VERTEX_POINT ( 'NONE', #24 ) ;
#907 = EDGE_CURVE ( 'NONE', #151, #67, #866, .T. ) ;
#908 = EDGE_CURVE ( 'NONE', #641, #37, #995, .T. ) ;
#909 = CARTESIAN_POINT ( 'NONE',  ( 0.1329999999999999793, 0.06900000000000003353, -0.08999999999999999667 ) ) ;
#910 = MECHANICAL_DESIGN_GEOMETRIC_PRESENTATION_REPRESENTATION (  '', ( #729 ), #416 ) ;
#911 = ORIENTED_EDGE ( 'NONE', *, *, #1013, .T. ) ;
#912 = LINE ( 'NONE', #895, #1045 ) ;
#913 = CARTESIAN_POINT ( 'NONE',  ( 0.1329999999999999793, 0.01399999999999998641, 0.08999999999999999667 ) ) ;
#914 = ADVANCED_FACE ( 'NONE', ( #101 ), #457, .F. ) ;
#915 = ORIENTED_EDGE ( 'NONE', *, *, #955, .F. ) ;
#916 = EDGE_CURVE ( 'NONE', #608, #308, #981, .T. ) ;
#917 = CARTESIAN_POINT ( 'NONE',  ( -0.1329999999999999793, 0.005999999999999984512, -0.3648035662068453977 ) ) ;
#918 = VECTOR ( 'NONE', #315, 39.37007874015748143 ) ;
#919 = ORIENTED_EDGE ( 'NONE', *, *, #1083, .F. ) ;
#920 = CARTESIAN_POINT ( 'NONE',  ( 0.01499999999999999424, 5.335640612625515639E-18, -0.08999999999999999667 ) ) ;
#921 = CARTESIAN_POINT ( 'NONE',  ( -0.1329999999999999793, 0.01399999999999998641, 0.08999999999999999667 ) ) ;
#922 = ORIENTED_EDGE ( 'NONE', *, *, #363, .T. ) ;
#923 = VECTOR ( 'NONE', #599, 39.37007874015748143 ) ;
#924 = AXIS2_PLACEMENT_3D ( 'NONE', #1050, #1137, #582 ) ;
#925 = VERTEX_POINT ( 'NONE', #3 ) ;
#926 = CARTESIAN_POINT ( 'NONE',  ( -0.1329999999999999793, 0.005999999999999984512, 0.08999999999999999667 ) ) ;
#927 = ORIENTED_EDGE ( 'NONE', *, *, #271, .T. ) ;
#928 = EDGE_CURVE ( 'NONE', #840, #1115, #383, .T. ) ;
#929 =( GEOMETRIC_REPRESENTATION_CONTEXT ( 3 ) GLOBAL_UNCERTAINTY_ASSIGNED_CONTEXT ( ( #1034 ) ) GLOBAL_UNIT_ASSIGNED_CONTEXT ( ( #169, #98, #711 ) ) REPRESENTATION_CONTEXT ( 'NONE', 'WORKASPACE' ) );
#930 = ORIENTED_EDGE ( 'NONE', *, *, #996, .T. ) ;
#931 = DIRECTION ( 'NONE',  ( -0.000000000000000000, -1.000000000000000000, -0.000000000000000000 ) ) ;
#932 = ORIENTED_EDGE ( 'NONE', *, *, #628, .F. ) ;
#933 = CARTESIAN_POINT ( 'NONE',  ( 0.1330000000000000349, 0.006000000000000018339, -0.3648035662068453977 ) ) ;
#934 = PRESENTATION_LAYER_ASSIGNMENT (  '', '', ( #234 ) ) ;
#935 = ORIENTED_EDGE ( 'NONE', *, *, #867, .F. ) ;
#936 = DIRECTION ( 'NONE',  ( -0.000000000000000000, 1.000000000000000000, -0.000000000000000000 ) ) ;
#937 = EDGE_LOOP ( 'NONE', ( #291, #567, #680, #493 ) ) ;
#938 = DIRECTION ( 'NONE',  ( -0.000000000000000000, -0.000000000000000000, -1.000000000000000000 ) ) ;
#939 = DIRECTION ( 'NONE',  ( -1.000000000000000000, 1.716687499084838669E-16, 0.000000000000000000 ) ) ;
#940 = LINE ( 'NONE', #864, #61 ) ;
#941 = ORIENTED_EDGE ( 'NONE', *, *, #224, .T. ) ;
#942 = DIRECTION ( 'NONE',  ( -0.000000000000000000, -0.000000000000000000, -1.000000000000000000 ) ) ;
#943 = ORIENTED_EDGE ( 'NONE', *, *, #707, .F. ) ;
#944 = AXIS2_PLACEMENT_3D ( 'NONE', #655, #59, #73 ) ;
#945 = CARTESIAN_POINT ( 'NONE',  ( 0.1329999999999999793, 0.005999999999999984512, 0.08999999999999999667 ) ) ;
#946 = DIRECTION ( 'NONE',  ( 3.557093741750344791E-15, 1.000000000000000000, 0.000000000000000000 ) ) ;
#947 = EDGE_CURVE ( 'NONE', #60, #562, #289, .T. ) ;
#948 = PLANE ( 'NONE',  #451 ) ;
#949 = ORIENTED_EDGE ( 'NONE', *, *, #1114, .F. ) ;
#950 = CARTESIAN_POINT ( 'NONE',  ( -0.1329999999999999793, -1.493979371535143794E-17, 0.08499999999999999223 ) ) ;
#951 = DIRECTION ( 'NONE',  ( 0.000000000000000000, -0.000000000000000000, -1.000000000000000000 ) ) ;
#952 = FACE_OUTER_BOUND ( 'NONE', #903, .T. ) ;
#953 = EDGE_CURVE ( 'NONE', #357, #1023, #281, .T. ) ;
#954 = DIRECTION ( 'NONE',  ( 1.000000000000000000, 1.266084213165376451E-16, -0.000000000000000000 ) ) ;
#955 = EDGE_CURVE ( 'NONE', #308, #67, #980, .T. ) ;
#956 = DIRECTION ( 'NONE',  ( 0.000000000000000000, 0.000000000000000000, -1.000000000000000000 ) ) ;
#957 = EDGE_LOOP ( 'NONE', ( #553, #148, #1053, #1072 ) ) ;
#958 = CARTESIAN_POINT ( 'NONE',  ( -0.1329999999999999793, 0.006999999999999985401, -0.08499999999999999223 ) ) ;
#959 = CARTESIAN_POINT ( 'NONE',  ( -0.1329999999999999793, 0.005999999999999984512, -0.08499999999999999223 ) ) ;
#960 = AXIS2_PLACEMENT_3D ( 'NONE', #481, #485, #664 ) ;
#961 = DIRECTION ( 'NONE',  ( 0.000000000000000000, -0.000000000000000000, -1.000000000000000000 ) ) ;
#962 = CARTESIAN_POINT ( 'NONE',  ( -0.1329999999999999793, 0.006999999999999985401, -0.08999999999999999667 ) ) ;
#963 = EDGE_CURVE ( 'NONE', #836, #708, #898, .T. ) ;
#964 = ORIENTED_EDGE ( 'NONE', *, *, #522, .T. ) ;
#965 = CARTESIAN_POINT ( 'NONE',  ( -0.1329999999999999793, 0.005999999999999984512, -0.08499999999999999223 ) ) ;
#966 = DIRECTION ( 'NONE',  ( -1.000000000000000000, 0.000000000000000000, 0.000000000000000000 ) ) ;
#967 = AXIS2_PLACEMENT_3D ( 'NONE', #681, #1119, #144 ) ;
#968 = PLANE ( 'NONE',  #1116 ) ;
#969 = EDGE_CURVE ( 'NONE', #848, #608, #31, .T. ) ;
#970 = ORIENTED_EDGE ( 'NONE', *, *, #9, .F. ) ;
#971 = LINE ( 'NONE', #163, #181 ) ;
#972 = FILL_AREA_STYLE_COLOUR ( '', #95 ) ;
#973 = FACE_OUTER_BOUND ( 'NONE', #27, .T. ) ;
#974 = VECTOR ( 'NONE', #1058, 39.37007874015748143 ) ;
#975 = DIRECTION ( 'NONE',  ( 0.000000000000000000, -0.000000000000000000, -1.000000000000000000 ) ) ;
#976 = VECTOR ( 'NONE', #686, 39.37007874015748143 ) ;
#977 = CARTESIAN_POINT ( 'NONE',  ( 0.01499999999999999424, 5.335640612625515639E-18, 0.08999999999999999667 ) ) ;
#978 = ORIENTED_EDGE ( 'NONE', *, *, #314, .F. ) ;
#979 = CARTESIAN_POINT ( 'NONE',  ( -0.1329999999999999793, 0.006999999999999985401, 0.08499999999999999223 ) ) ;
#980 = LINE ( 'NONE', #280, #1036 ) ;
#981 = CIRCLE ( 'NONE', #827, 0.007000000000000003615 ) ;
#982 = ADVANCED_BREP_SHAPE_REPRESENTATION ( 'WSHM2818R0150FEA', ( #799, #35, #404, #874 ), #929 ) ;
#983 = LINE ( 'NONE', #447, #275 ) ;
#984 = PLANE ( 'NONE',  #149 ) ;
#985 = ADVANCED_FACE ( 'NONE', ( #809 ), #14, .F. ) ;
#986 = VECTOR ( 'NONE', #731, 39.37007874015748143 ) ;
#987 = CARTESIAN_POINT ( 'NONE',  ( -0.01499999999999999424, 0.006000000000000000125, -0.08999999999999999667 ) ) ;
#988 = CIRCLE ( 'NONE', #129, 0.007000000000000003615 ) ;
#989 = DIRECTION ( 'NONE',  ( 0.000000000000000000, -0.000000000000000000, -1.000000000000000000 ) ) ;
#990 = VERTEX_POINT ( 'NONE', #993 ) ;
#991 = DIRECTION ( 'NONE',  ( -1.716687499084838669E-16, 1.000000000000000000, 0.000000000000000000 ) ) ;
#992 = DIRECTION ( 'NONE',  ( 0.000000000000000000, 1.000000000000000000, 0.000000000000000000 ) ) ;
#993 = CARTESIAN_POINT ( 'NONE',  ( -0.1329999999999999793, -1.493979371535143794E-17, -0.08999999999999999667 ) ) ;
#994 = ORIENTED_EDGE ( 'NONE', *, *, #916, .F. ) ;
#995 = LINE ( 'NONE', #987, #371 ) ;
#996 = EDGE_CURVE ( 'NONE', #1088, #198, #21, .T. ) ;
#997 = LINE ( 'NONE', #197, #395 ) ;
#998 = ADVANCED_FACE ( 'NONE', ( #1021 ), #1129, .T. ) ;
#999 = VERTEX_POINT ( 'NONE', #590 ) ;
#1000 = CARTESIAN_POINT ( 'NONE',  ( -0.01499999999999999424, 5.335640612625515639E-18, 0.08999999999999999667 ) ) ;
#1001 = ORIENTED_EDGE ( 'NONE', *, *, #556, .F. ) ;
#1002 = CARTESIAN_POINT ( 'NONE',  ( -0.1329999999999999793, 0.01399999999999998641, -0.08499999999999999223 ) ) ;
#1003 = CARTESIAN_POINT ( 'NONE',  ( 0.01499999999999999424, 0.006000000000000000125, 0.08999999999999999667 ) ) ;
#1004 = VERTEX_POINT ( 'NONE', #408 ) ;
#1005 = CARTESIAN_POINT ( 'NONE',  ( -0.1329999999999999793, 0.006999999999999985401, -0.08999999999999999667 ) ) ;
#1006 = EDGE_CURVE ( 'NONE', #265, #757, #1110, .T. ) ;
#1007 = EDGE_LOOP ( 'NONE', ( #834, #922, #614, #477 ) ) ;
#1008 = LINE ( 'NONE', #492, #324 ) ;
#1009 = DIRECTION ( 'NONE',  ( -0.000000000000000000, -0.000000000000000000, -1.000000000000000000 ) ) ;
#1010 = ORIENTED_EDGE ( 'NONE', *, *, #177, .F. ) ;
#1011 = CIRCLE ( 'NONE', #515, 0.007000000000000003615 ) ;
#1012 = ORIENTED_EDGE ( 'NONE', *, *, #953, .F. ) ;
#1013 = EDGE_CURVE ( 'NONE', #419, #1004, #71, .T. ) ;
#1014 = CARTESIAN_POINT ( 'NONE',  ( -0.1329999999999999793, 0.005999999999999984512, 0.08999999999999999667 ) ) ;
#1015 = ORIENTED_EDGE ( 'NONE', *, *, #381, .T. ) ;
#1016 = AXIS2_PLACEMENT_3D ( 'NONE', #807, #991, #372 ) ;
#1017 = VECTOR ( 'NONE', #612, 39.37007874015748143 ) ;
#1018 = ORIENTED_EDGE ( 'NONE', *, *, #51, .T. ) ;
#1019 = CARTESIAN_POINT ( 'NONE',  ( -0.1329999999999999793, 0.006999999999999985401, 0.08999999999999999667 ) ) ;
#1020 = LINE ( 'NONE', #228, #544 ) ;
#1021 = FACE_OUTER_BOUND ( 'NONE', #643, .T. ) ;
#1022 = PRODUCT_DEFINITION_FORMATION_WITH_SPECIFIED_SOURCE ( 'ANY', '', #173, .NOT_KNOWN. ) ;
#1023 = VERTEX_POINT ( 'NONE', #855 ) ;
#1024 = PRESENTATION_LAYER_ASSIGNMENT (  '', '', ( #729 ) ) ;
#1025 = EDGE_LOOP ( 'NONE', ( #1029, #394, #248, #222, #219, #486 ) ) ;
#1026 = LINE ( 'NONE', #505, #778 ) ;
#1027 = DIRECTION ( 'NONE',  ( 1.000000000000000000, 1.266084213165376451E-16, 0.000000000000000000 ) ) ;
#1028 = CARTESIAN_POINT ( 'NONE',  ( -0.1329999999999999793, 0.007999999999999986289, 0.08499999999999999223 ) ) ;
#1029 = ORIENTED_EDGE ( 'NONE', *, *, #725, .T. ) ;
#1030 = CARTESIAN_POINT ( 'NONE',  ( 0.1339999999999999802, 0.006999999999999985401, 0.08999999999999999667 ) ) ;
#1031 = LINE ( 'NONE', #802, #92 ) ;
#1032 = ADVANCED_FACE ( 'NONE', ( #765 ), #229, .F. ) ;
#1033 = LINE ( 'NONE', #48, #723 ) ;
#1034 = UNCERTAINTY_MEASURE_WITH_UNIT (LENGTH_MEASURE( 1.000000000000000082E-05 ), #169, 'distance_accuracy_value', 'NONE');
#1035 = CARTESIAN_POINT ( 'NONE',  ( -0.01499999999999999424, 0.006000000000000000125, -0.08999999999999999667 ) ) ;
#1036 = VECTOR ( 'NONE', #721, 39.37007874015748143 ) ;
#1037 = DIRECTION ( 'NONE',  ( 0.000000000000000000, 0.000000000000000000, -1.000000000000000000 ) ) ;
#1038 = VERTEX_POINT ( 'NONE', #330 ) ;
#1039 = CARTESIAN_POINT ( 'NONE',  ( -0.1329999999999999793, -1.492127187657557686E-17, 0.08999999999999999667 ) ) ;
#1040 = ORIENTED_EDGE ( 'NONE', *, *, #90, .F. ) ;
#1041 = EDGE_CURVE ( 'NONE', #470, #338, #843, .T. ) ;
#1042 = AXIS2_PLACEMENT_3D ( 'NONE', #1089, #474, #1081 ) ;
#1043 = LINE ( 'NONE', #165, #575 ) ;
#1044 =( LENGTH_UNIT ( ) NAMED_UNIT ( * ) SI_UNIT ( $, .METRE. ) );
#1045 = VECTOR ( 'NONE', #116, 39.37007874015748143 ) ;
#1046 = DIRECTION ( 'NONE',  ( 1.000000000000000000, 0.000000000000000000, 0.000000000000000000 ) ) ;
#1047 = ORIENTED_EDGE ( 'NONE', *, *, #953, .T. ) ;
#1048 = DIRECTION ( 'NONE',  ( 1.000000000000000000, 0.000000000000000000, 0.000000000000000000 ) ) ;
#1049 = SURFACE_STYLE_FILL_AREA ( #801 ) ;
#1050 = CARTESIAN_POINT ( 'NONE',  ( -0.1329999999999999793, 0.006999999999999985401, 0.08499999999999999223 ) ) ;
#1051 = CARTESIAN_POINT ( 'NONE',  ( -0.1329999999999999793, 0.006999999999999985401, 0.08499999999999999223 ) ) ;
#1052 = CARTESIAN_POINT ( 'NONE',  ( 0.1339999999999999802, 0.006999999999999985401, 0.08499999999999999223 ) ) ;
#1053 = ORIENTED_EDGE ( 'NONE', *, *, #146, .F. ) ;
#1054 = DIRECTION ( 'NONE',  ( -1.000000000000000000, 0.000000000000000000, 0.000000000000000000 ) ) ;
#1055 = DIRECTION ( 'NONE',  ( 0.000000000000000000, -1.000000000000000000, 0.000000000000000000 ) ) ;
#1056 = EDGE_CURVE ( 'NONE', #757, #151, #1078, .T. ) ;
#1057 = EDGE_CURVE ( 'NONE', #198, #738, #464, .T. ) ;
#1058 = DIRECTION ( 'NONE',  ( -1.000000000000000000, -1.283763154917417211E-16, -0.000000000000000000 ) ) ;
#1059 = ORIENTED_EDGE ( 'NONE', *, *, #611, .F. ) ;
#1060 = DIRECTION ( 'NONE',  ( 0.000000000000000000, 0.000000000000000000, 1.000000000000000000 ) ) ;
#1061 =( CONVERSION_BASED_UNIT ( 'INCH', #175 ) LENGTH_UNIT ( ) NAMED_UNIT ( #592 ) );
#1062 = VERTEX_POINT ( 'NONE', #667 ) ;
#1063 = DIRECTION ( 'NONE',  ( 0.000000000000000000, -1.000000000000000000, 0.000000000000000000 ) ) ;
#1064 = AXIS2_PLACEMENT_3D ( 'NONE', #691, #350, #1046 ) ;
#1065 = CARTESIAN_POINT ( 'NONE',  ( -0.1329999999999999793, 0.005999999999999984512, -0.08999999999999999667 ) ) ;
#1066 = DIRECTION ( 'NONE',  ( 0.000000000000000000, -0.000000000000000000, -1.000000000000000000 ) ) ;
#1067 = EDGE_LOOP ( 'NONE', ( #1040, #930, #294, #573 ) ) ;
#1068 = CARTESIAN_POINT ( 'NONE',  ( -0.1329999999999999793, -1.492127187657557686E-17, 0.08999999999999999667 ) ) ;
#1069 = AXIS2_PLACEMENT_3D ( 'NONE', #679, #1134, #430 ) ;
#1070 = VECTOR ( 'NONE', #954, 39.37007874015748143 ) ;
#1071 =( NAMED_UNIT ( * ) PLANE_ANGLE_UNIT ( ) SI_UNIT ( $, .RADIAN. ) );
#1072 = ORIENTED_EDGE ( 'NONE', *, *, #108, .T. ) ;
#1073 = PLANE ( 'NONE',  #1042 ) ;
#1074 = EDGE_CURVE ( 'NONE', #405, #1004, #1033, .T. ) ;
#1075 = FILL_AREA_STYLE ('',( #791 ) ) ;
#1076 = EDGE_CURVE ( 'NONE', #854, #906, #665, .T. ) ;
#1077 = ORIENTED_EDGE ( 'NONE', *, *, #1076, .T. ) ;
#1078 = CIRCLE ( 'NONE', #967, 0.007000000000000003615 ) ;
#1079 = AXIS2_PLACEMENT_3D ( 'NONE', #861, #616, #966 ) ;
#1080 = VERTEX_POINT ( 'NONE', #414 ) ;
#1081 = DIRECTION ( 'NONE',  ( -1.000000000000000000, 1.266084213165376451E-16, 0.000000000000000000 ) ) ;
#1082 = ORIENTED_EDGE ( 'NONE', *, *, #1041, .F. ) ;
#1083 = EDGE_CURVE ( 'NONE', #470, #326, #676, .T. ) ;
#1084 = VECTOR ( 'NONE', #704, 39.37007874015748143 ) ;
#1085 = DIRECTION ( 'NONE',  ( 0.000000000000000000, 0.000000000000000000, -1.000000000000000000 ) ) ;
#1086 = EDGE_LOOP ( 'NONE', ( #473, #1147, #370, #753 ) ) ;
#1087 = FACE_OUTER_BOUND ( 'NONE', #674, .T. ) ;
#1088 = VERTEX_POINT ( 'NONE', #243 ) ;
#1089 = CARTESIAN_POINT ( 'NONE',  ( 0.01499999999999999424, 0.006000000000000000125, 0.08999999999999999667 ) ) ;
#1090 = FACE_OUTER_BOUND ( 'NONE', #1067, .T. ) ;
#1091 = EDGE_CURVE ( 'NONE', #338, #156, #597, .T. ) ;
#1092 = PLANE ( 'NONE',  #429 ) ;
#1093 = VECTOR ( 'NONE', #816, 39.37007874015748143 ) ;
#1094 = ORIENTED_EDGE ( 'NONE', *, *, #314, .T. ) ;
#1095 = CARTESIAN_POINT ( 'NONE',  ( -0.1329999999999999793, 0.06899999999999999190, -0.08999999999999999667 ) ) ;
#1096 = PRODUCT_DEFINITION_SHAPE ( 'NONE', 'NONE',  #344 ) ;
#1097 = CARTESIAN_POINT ( 'NONE',  ( -0.01499999999999999424, 0.006000000000000000125, -0.3648035662068453977 ) ) ;
#1098 = ORIENTED_EDGE ( 'NONE', *, *, #94, .T. ) ;
#1099 = EDGE_LOOP ( 'NONE', ( #167, #207, #915, #602, #458, #736 ) ) ;
#1100 = DIRECTION ( 'NONE',  ( -0.000000000000000000, -0.000000000000000000, -1.000000000000000000 ) ) ;
#1101 = ORIENTED_EDGE ( 'NONE', *, *, #186, .F. ) ;
#1102 = AXIS2_PLACEMENT_3D ( 'NONE', #921, #235, #489 ) ;
#1103 = EDGE_LOOP ( 'NONE', ( #795, #480, #258, #488 ) ) ;
#1104 = LINE ( 'NONE', #741, #918 ) ;
#1105 = ORIENTED_EDGE ( 'NONE', *, *, #725, .F. ) ;
#1106 = CARTESIAN_POINT ( 'NONE',  ( -0.1329999999999999793, 0.06899999999999999190, -0.3648035662068453977 ) ) ;
#1107 = ORIENTED_EDGE ( 'NONE', *, *, #177, .T. ) ;
#1108 = LINE ( 'NONE', #321, #120 ) ;
#1109 = ORIENTED_EDGE ( 'NONE', *, *, #1074, .T. ) ;
#1110 = LINE ( 'NONE', #256, #110 ) ;
#1111 = PLANE ( 'NONE',  #379 ) ;
#1112 = EDGE_CURVE ( 'NONE', #122, #764, #1026, .T. ) ;
#1113 = COLOUR_RGB ( '',0.7960784313725489669, 0.8235294117647058432, 0.9372549019607843146 ) ;
#1114 = EDGE_CURVE ( 'NONE', #555, #698, #772, .T. ) ;
#1115 = VERTEX_POINT ( 'NONE', #237 ) ;
#1116 = AXIS2_PLACEMENT_3D ( 'NONE', #170, #538, #880 ) ;
#1117 = CARTESIAN_POINT ( 'NONE',  ( -0.01499999999999999424, 5.335640612625515639E-18, -0.3648035662068453977 ) ) ;
#1118 = VERTEX_POINT ( 'NONE', #688 ) ;
#1119 = DIRECTION ( 'NONE',  ( -0.000000000000000000, -0.000000000000000000, -1.000000000000000000 ) ) ;
#1120 = LENGTH_MEASURE_WITH_UNIT ( LENGTH_MEASURE( 0.02539999999999999897 ), #1044 );
#1121 = AXIS2_PLACEMENT_3D ( 'NONE', #1117, #412, #150 ) ;
#1122 = DIRECTION ( 'NONE',  ( -1.000000000000000000, 0.000000000000000000, 0.000000000000000000 ) ) ;
#1123 = EDGE_CURVE ( 'NONE', #407, #708, #1043, .T. ) ;
#1124 = ADVANCED_FACE ( 'NONE', ( #952 ), #520, .T. ) ;
#1125 = ORIENTED_EDGE ( 'NONE', *, *, #418, .T. ) ;
#1126 = VECTOR ( 'NONE', #615, 39.37007874015748143 ) ;
#1127 = PLANE ( 'NONE',  #1145 ) ;
#1128 = EDGE_LOOP ( 'NONE', ( #658, #927, #413, #482 ) ) ;
#1129 = PLANE ( 'NONE',  #75 ) ;
#1130 = AXIS2_PLACEMENT_3D ( 'NONE', #635, #551, #195 ) ;
#1131 = CARTESIAN_POINT ( 'NONE',  ( -0.01499999999999999424, 0.006000000000000000125, -0.08999999999999999667 ) ) ;
#1132 = ORIENTED_EDGE ( 'NONE', *, *, #230, .T. ) ;
#1133 = APPLICATION_CONTEXT ( 'automotive_design' ) ;
#1134 = DIRECTION ( 'NONE',  ( 1.716687499084838669E-16, 1.000000000000000000, 0.000000000000000000 ) ) ;
#1135 = CARTESIAN_POINT ( 'NONE',  ( 0.01500000000000001506, 0.006000000000000002727, -0.08999999999999999667 ) ) ;
#1136 = AXIS2_PLACEMENT_3D ( 'NONE', #463, #989, #812 ) ;
#1137 = DIRECTION ( 'NONE',  ( -0.000000000000000000, -0.000000000000000000, -1.000000000000000000 ) ) ;
#1138 = VECTOR ( 'NONE', #519, 39.37007874015748143 ) ;
#1139 = LINE ( 'NONE', #1028, #83 ) ;
#1140 = EDGE_CURVE ( 'NONE', #840, #838, #439, .T. ) ;
#1141 = ORIENTED_EDGE ( 'NONE', *, *, #1140, .T. ) ;
#1142 = LINE ( 'NONE', #241, #976 ) ;
#1143 =( LENGTH_UNIT ( ) NAMED_UNIT ( * ) SI_UNIT ( $, .METRE. ) );
#1144 = ADVANCED_FACE ( 'NONE', ( #973 ), #89, .T. ) ;
#1145 = AXIS2_PLACEMENT_3D ( 'NONE', #337, #157, #212 ) ;
#1146 = CARTESIAN_POINT ( 'NONE',  ( -0.1329999999999999793, 0.006999999999999985401, -0.08499999999999999223 ) ) ;
#1147 = ORIENTED_EDGE ( 'NONE', *, *, #467, .F. ) ;
#1148 = LINE ( 'NONE', #358, #476 ) ;
#1149 = SURFACE_SIDE_STYLE ('',( #1049 ) ) ;
#1150 = ORIENTED_EDGE ( 'NONE', *, *, #381, .F. ) ;
#1151 = LINE ( 'NONE', #164, #483 ) ;
ENDSEC;
END-ISO-10303-21;
